<svg xmlns="http://www.w3.org/2000/svg" width="940" height="350" viewBox="0 0 940 350" role="img" aria-labelledby="title description">
  <title id="title">Actual Recurs alpha company run</title>
  <desc id="description">A completed company goal showing the activated Parent, Implement, and Review roles, their exact models and effort, results, test evidence, and token usage.</desc>
  <!-- Generated by scripts/generate-recurs-brand.mjs. Do not edit. -->
  <defs>
    <linearGradient id="recurs-gradient" x1="0" y1="0" x2="1" y2="1">
      <stop offset="0" stop-color="#4285f4"/>
      <stop offset="0.5" stop-color="#3ddbd9"/>
      <stop offset="1" stop-color="#b7f34a"/>
    </linearGradient>
    <style>
      .divider { stroke: #253140; stroke-width: 1; }
      .row { fill: #111923; }
      .eyebrow { fill: #3ddbd9; font: 700 12px ui-monospace, SFMono-Regular, Menlo, Consolas, monospace; letter-spacing: 1.2px; }
      .heading { fill: #f4f7fb; font: 700 23px ui-monospace, SFMono-Regular, Menlo, Consolas, monospace; }
      .column { fill: #8e98a8; font: 700 11px ui-monospace, SFMono-Regular, Menlo, Consolas, monospace; letter-spacing: 1px; }
      .role { fill: #f4f7fb; font: 700 15px ui-monospace, SFMono-Regular, Menlo, Consolas, monospace; }
      .value { fill: #c8d1dc; font: 14px ui-monospace, SFMono-Regular, Menlo, Consolas, monospace; }
      .result { fill: #b7f34a; font: 700 14px ui-monospace, SFMono-Regular, Menlo, Consolas, monospace; }
      .summary { fill: #c8d1dc; font: 13px ui-monospace, SFMono-Regular, Menlo, Consolas, monospace; }
      .usage { fill: #8e98a8; font: 12px ui-monospace, SFMono-Regular, Menlo, Consolas, monospace; }
      .success-dot { fill: #b7f34a; }
    </style>
  </defs>
  <rect x="1" y="1" width="938" height="348" rx="16" fill="#0b1016" stroke="#253140" stroke-width="2"/>
  <circle cx="25" cy="25" r="5" fill="#ff6b6b"/>
  <circle cx="43" cy="25" r="5" fill="#f5c451"/>
  <circle cx="61" cy="25" r="5" fill="#b7f34a"/>
  <text x="86" y="30" class="summary">recurs · company goal</text>
  <line x1="1" y1="49" x2="939" y2="49" class="divider"/>
  <g transform="translate(24 62) scale(0.28)">
    <g fill="none" stroke="url(#recurs-gradient)" stroke-linecap="round" stroke-linejoin="round">
      <path d="M 122 73 L 136 59 C 145 41 138 18 114 18 H 47 C 17 18 17 63 47 63 H 70 C 84 63 94 70 104 81 L 137 123" stroke-width="21"/>
      <path d="M 99 88 L 77 110 C 64 124 43 124 29 110" stroke-width="21"/>
    </g>
    <polygon points="5,104 31,83 48,83 48,108 31,108 31,127" fill="url(#recurs-gradient)"/>
  </g>
  <text x="82" y="78" class="eyebrow">ACTUAL ALPHA RUN · 2026-07-23</text>
  <text x="82" y="105" class="heading">Reviewed company goal completed</text>
  <text x="46" y="124" class="column">ACTIVATED ROLE</text>
  <text x="230" y="124" class="column">MODEL / EFFORT</text>
  <text x="604" y="124" class="column">RESULT</text>
  <rect x="24" y="132" width="892" height="45" rx="8" class="row"/>
  <text x="46" y="165" class="role">Parent</text>
  <text x="230" y="165" class="value">gpt-5.6-sol · high</text>
  <circle cx="604" cy="159" r="5" class="success-dot"/>
  <text x="620" y="165" class="result">synthesis passed</text>
  <rect x="24" y="187" width="892" height="45" rx="8" class="row"/>
  <text x="46" y="220" class="role">Implement</text>
  <text x="230" y="220" class="value">gpt-5.6-terra · medium</text>
  <circle cx="604" cy="214" r="5" class="success-dot"/>
  <text x="620" y="220" class="result">2-file candidate</text>
  <rect x="24" y="242" width="892" height="45" rx="8" class="row"/>
  <text x="46" y="275" class="role">Review</text>
  <text x="230" y="275" class="value">gpt-5.6-luna · medium</text>
  <circle cx="604" cy="269" r="5" class="success-dot"/>
  <text x="620" y="275" class="result">approved</text>
  <line x1="24" y1="305" x2="916" y2="305" class="divider"/>
  <circle cx="31" cy="326" r="5" class="success-dot"/>
  <text x="45" y="331" class="summary">4 tests passed</text>
  <text x="184" y="331" class="usage">216,879 input (161,024 cached) · 3,274 output · cost unknown</text>
</svg>
