<svg xmlns="http://www.w3.org/2000/svg" width="832" height="586" viewBox="0 0 832 586" role="img" aria-label="Recurs terminal: chats"><rect width="832" height="586" rx="10" fill="#191714"/><text x="16" y="18" fill="#b7ac9e" font-family="monospace" font-size="11">Recurs · actual installed terminal · chats</text><g shape-rendering="crispEdges"><rect x="16" y="26" width="800" height="18" fill="#191714"/><rect x="16" y="44" width="800" height="18" fill="#191714"/><rect x="16" y="62" width="800" height="18" fill="#191714"/><rect x="16" y="80" width="800" height="18" fill="#191714"/><rect x="16" y="98" width="800" height="18" fill="#191714"/><rect x="16" y="116" width="800" height="18" fill="#191714"/><rect x="16" y="134" width="800" height="18" fill="#191714"/><rect x="16" y="152" width="800" height="18" fill="#191714"/><rect x="16" y="170" width="800" height="18" fill="#191714"/><rect x="16" y="188" width="800" height="18" fill="#191714"/><rect x="16" y="206" width="800" height="18" fill="#191714"/><rect x="16" y="224" width="800" height="18" fill="#191714"/><rect x="16" y="242" width="800" height="18" fill="#191714"/><rect x="16" y="260" width="800" height="18" fill="#191714"/><rect x="16" y="278" width="800" height="18" fill="#191714"/><rect x="16" y="296" width="800" height="18" fill="#191714"/><rect x="16" y="314" width="800" height="18" fill="#191714"/><rect x="16" y="332" width="800" height="18" fill="#191714"/><rect x="16" y="350" width="800" height="18" fill="#191714"/><rect x="16" y="368" width="800" height="18" fill="#191714"/><rect x="16" y="386" width="800" height="18" fill="#191714"/><rect x="16" y="404" width="800" height="18" fill="#191714"/><rect x="16" y="422" width="800" height="18" fill="#191714"/><rect x="16" y="440" width="800" height="18" fill="#191714"/><rect x="16" y="458" width="800" height="18" fill="#191714"/><rect x="16" y="476" width="800" height="18" fill="#191714"/><rect x="16" y="494" width="800" height="18" fill="#191714"/><rect x="16" y="512" width="800" height="18" fill="#191714"/><rect x="16" y="530" width="800" height="18" fill="#191714"/><rect x="16" y="548" width="800" height="18" fill="#191714"/></g><g font-family="monospace" font-size="13"><text x="392" y="40" fill="#b7ac9e">i</text><text x="400" y="40" fill="#b7ac9e">i</text><text x="408" y="40" fill="#f3a05b">M</text><text x="416" y="40" fill="#f3a05b">M</text><text x="424" y="40" fill="#b7ac9e">i</text><text x="392" y="58" fill="#b7ac9e">i</text><text x="400" y="58" fill="#f3a05b">M</text><text x="408" y="58" fill="#f3a05b">M</text><text x="416" y="58" fill="#b7ac9e">i</text><text x="424" y="58" fill="#b7ac9e">i</text><text x="432" y="58" fill="#b7ac9e">i</text><text x="392" y="76" fill="#b7ac9e">i</text><text x="400" y="76" fill="#f3a05b">M</text><text x="408" y="76" fill="#b7ac9e">i</text><text x="416" y="76" fill="#b7ac9e">i</text><text x="424" y="76" fill="#f3a05b">M</text><text x="432" y="76" fill="#b7ac9e">i</text><text x="392" y="94" fill="#b7ac9e">i</text><text x="400" y="94" fill="#b7ac9e">i</text><text x="408" y="94" fill="#f3a05b">X</text><text x="416" y="94" fill="#b7ac9e">i</text><text x="424" y="94" fill="#b7ac9e">i</text><text x="432" y="94" fill="#f3a05b">M</text><text x="392" y="112" fill="#f3ede5" font-weight="bold">S</text><text x="400" y="112" fill="#f3a05b">A</text><text x="416" y="112" fill="#f3a05b">X</text><text x="424" y="112" fill="#b7ac9e">i</text><text x="432" y="112" fill="#b7ac9e">i</text><text x="392" y="148" fill="#f3a05b">R</text><text x="400" y="148" fill="#f3a05b">E</text><text x="408" y="148" fill="#f3a05b">C</text><text x="416" y="148" fill="#f3a05b">U</text><text x="424" y="148" fill="#f3a05b">R</text><text x="432" y="148" fill="#f3a05b">S</text><text x="16" y="166" fill="#f3a05b">R</text><text x="24" y="166" fill="#f3a05b">E</text><text x="32" y="166" fill="#f3a05b">C</text><text x="40" y="166" fill="#f3a05b">U</text><text x="48" y="166" fill="#f3a05b">R</text><text x="56" y="166" fill="#f3a05b">S</text><text x="72" y="166" fill="#f3a05b">/</text><text x="88" y="166" fill="#f3a05b">P</text><text x="96" y="166" fill="#f3a05b">A</text><text x="104" y="166" fill="#f3a05b">R</text><text x="112" y="166" fill="#f3a05b">S</text><text x="120" y="166" fill="#f3a05b">E</text><text x="128" y="166" fill="#f3a05b">R</text><text x="136" y="166" fill="#f3a05b">-</text><text x="144" y="166" fill="#f3a05b">P</text><text x="152" y="166" fill="#f3a05b">R</text><text x="160" y="166" fill="#f3a05b">O</text><text x="168" y="166" fill="#f3a05b">J</text><text x="176" y="166" fill="#f3a05b">E</text><text x="184" y="166" fill="#f3a05b">C</text><text x="192" y="166" fill="#f3a05b">T</text><text x="208" y="166" fill="#f3a05b">/</text><text x="224" y="166" fill="#f3a05b">P</text><text x="232" y="166" fill="#f3a05b">R</text><text x="240" y="166" fill="#f3a05b">O</text><text x="248" y="166" fill="#f3a05b">J</text><text x="256" y="166" fill="#f3a05b">E</text><text x="264" y="166" fill="#f3a05b">C</text><text x="272" y="166" fill="#f3a05b">T</text><text x="280" y="166" fill="#f3a05b">S</text><text x="16" y="184" fill="#b7ac9e">─</text><text x="24" y="184" fill="#b7ac9e">─</text><text x="32" y="184" fill="#b7ac9e">─</text><text x="40" y="184" fill="#b7ac9e">─</text><text x="48" y="184" fill="#b7ac9e">─</text><text x="56" y="184" fill="#b7ac9e">─</text><text x="64" y="184" fill="#b7ac9e">─</text><text x="72" y="184" fill="#b7ac9e">─</text><text x="80" y="184" fill="#b7ac9e">─</text><text x="88" y="184" fill="#b7ac9e">─</text><text x="96" y="184" fill="#b7ac9e">─</text><text x="104" y="184" fill="#b7ac9e">─</text><text x="112" y="184" fill="#b7ac9e">─</text><text x="120" y="184" fill="#b7ac9e">─</text><text x="128" y="184" fill="#b7ac9e">─</text><text x="136" y="184" fill="#b7ac9e">─</text><text x="144" y="184" fill="#b7ac9e">─</text><text x="152" y="184" fill="#b7ac9e">─</text><text x="160" y="184" fill="#b7ac9e">─</text><text x="168" y="184" fill="#b7ac9e">─</text><text x="176" y="184" fill="#b7ac9e">─</text><text x="184" y="184" fill="#b7ac9e">─</text><text x="192" y="184" fill="#b7ac9e">─</text><text x="200" y="184" fill="#b7ac9e">─</text><text x="208" y="184" fill="#b7ac9e">─</text><text x="216" y="184" fill="#b7ac9e">─</text><text x="224" y="184" fill="#b7ac9e">─</text><text x="232" y="184" fill="#b7ac9e">─</text><text x="240" y="184" fill="#b7ac9e">─</text><text x="248" y="184" fill="#b7ac9e">─</text><text x="256" y="184" fill="#b7ac9e">─</text><text x="264" y="184" fill="#b7ac9e">─</text><text x="272" y="184" fill="#b7ac9e">─</text><text x="280" y="184" fill="#b7ac9e">─</text><text x="288" y="184" fill="#b7ac9e">─</text><text x="296" y="184" fill="#b7ac9e">─</text><text x="304" y="184" fill="#b7ac9e">─</text><text x="312" y="184" fill="#b7ac9e">─</text><text x="320" y="184" fill="#b7ac9e">─</text><text x="328" y="184" fill="#b7ac9e">─</text><text x="336" y="184" fill="#b7ac9e">─</text><text x="344" y="184" fill="#b7ac9e">─</text><text x="352" y="184" fill="#b7ac9e">─</text><text x="360" y="184" fill="#b7ac9e">─</text><text x="368" y="184" fill="#b7ac9e">─</text><text x="376" y="184" fill="#b7ac9e">─</text><text x="384" y="184" fill="#b7ac9e">─</text><text x="392" y="184" fill="#b7ac9e">─</text><text x="400" y="184" fill="#b7ac9e">─</text><text x="408" y="184" fill="#b7ac9e">─</text><text x="416" y="184" fill="#b7ac9e">─</text><text x="424" y="184" fill="#b7ac9e">─</text><text x="432" y="184" fill="#b7ac9e">─</text><text x="440" y="184" fill="#b7ac9e">─</text><text x="448" y="184" fill="#b7ac9e">─</text><text x="456" y="184" fill="#b7ac9e">─</text><text x="464" y="184" fill="#b7ac9e">─</text><text x="472" y="184" fill="#b7ac9e">─</text><text x="480" y="184" fill="#b7ac9e">─</text><text x="488" y="184" fill="#b7ac9e">─</text><text x="496" y="184" fill="#b7ac9e">─</text><text x="504" y="184" fill="#b7ac9e">─</text><text x="512" y="184" fill="#b7ac9e">─</text><text x="520" y="184" fill="#b7ac9e">─</text><text x="528" y="184" fill="#b7ac9e">─</text><text x="536" y="184" fill="#b7ac9e">─</text><text x="544" y="184" fill="#b7ac9e">─</text><text x="552" y="184" fill="#b7ac9e">─</text><text x="560" y="184" fill="#b7ac9e">─</text><text x="568" y="184" fill="#b7ac9e">─</text><text x="576" y="184" fill="#b7ac9e">─</text><text x="584" y="184" fill="#b7ac9e">─</text><text x="592" y="184" fill="#b7ac9e">─</text><text x="600" y="184" fill="#b7ac9e">─</text><text x="608" y="184" fill="#b7ac9e">─</text><text x="616" y="184" fill="#b7ac9e">─</text><text x="624" y="184" fill="#b7ac9e">─</text><text x="632" y="184" fill="#b7ac9e">─</text><text x="640" y="184" fill="#b7ac9e">─</text><text x="648" y="184" fill="#b7ac9e">─</text><text x="656" y="184" fill="#b7ac9e">─</text><text x="664" y="184" fill="#b7ac9e">─</text><text x="672" y="184" fill="#b7ac9e">─</text><text x="680" y="184" fill="#b7ac9e">─</text><text x="688" y="184" fill="#b7ac9e">─</text><text x="696" y="184" fill="#b7ac9e">─</text><text x="704" y="184" fill="#b7ac9e">─</text><text x="712" y="184" fill="#b7ac9e">─</text><text x="720" y="184" fill="#b7ac9e">─</text><text x="728" y="184" fill="#b7ac9e">─</text><text x="736" y="184" fill="#b7ac9e">─</text><text x="744" y="184" fill="#b7ac9e">─</text><text x="752" y="184" fill="#b7ac9e">─</text><text x="760" y="184" fill="#b7ac9e">─</text><text x="768" y="184" fill="#b7ac9e">─</text><text x="776" y="184" fill="#b7ac9e">─</text><text x="784" y="184" fill="#b7ac9e">─</text><text x="792" y="184" fill="#b7ac9e">─</text><text x="800" y="184" fill="#b7ac9e">─</text><text x="808" y="184" fill="#b7ac9e">─</text><text x="16" y="202" fill="#f3ede5" font-weight="bold">C</text><text x="24" y="202" fill="#f3ede5" font-weight="bold">h</text><text x="32" y="202" fill="#f3ede5" font-weight="bold">a</text><text x="40" y="202" fill="#f3ede5" font-weight="bold">t</text><text x="48" y="202" fill="#f3ede5" font-weight="bold">s</text><text x="64" y="202" fill="#f3ede5" font-weight="bold">·</text><text x="80" y="202" fill="#f3ede5" font-weight="bold">4</text><text x="16" y="220" fill="#f3ede5">&gt;</text><text x="32" y="220" fill="#f3ede5">★</text><text x="48" y="220" fill="#f3ede5">P</text><text x="56" y="220" fill="#f3ede5">a</text><text x="64" y="220" fill="#f3ede5">r</text><text x="72" y="220" fill="#f3ede5">s</text><text x="80" y="220" fill="#f3ede5">e</text><text x="88" y="220" fill="#f3ede5">r</text><text x="104" y="220" fill="#f3ede5">r</text><text x="112" y="220" fill="#f3ede5">e</text><text x="120" y="220" fill="#f3ede5">v</text><text x="128" y="220" fill="#f3ede5">i</text><text x="136" y="220" fill="#f3ede5">e</text><text x="144" y="220" fill="#f3ede5">w</text><text x="48" y="238" fill="#b7ac9e">t</text><text x="56" y="238" fill="#b7ac9e">e</text><text x="64" y="238" fill="#b7ac9e">r</text><text x="72" y="238" fill="#b7ac9e">m</text><text x="80" y="238" fill="#b7ac9e">i</text><text x="88" y="238" fill="#b7ac9e">n</text><text x="96" y="238" fill="#b7ac9e">a</text><text x="104" y="238" fill="#b7ac9e">l</text><text x="112" y="238" fill="#b7ac9e">-</text><text x="120" y="238" fill="#b7ac9e">f</text><text x="128" y="238" fill="#b7ac9e">i</text><text x="136" y="238" fill="#b7ac9e">x</text><text x="144" y="238" fill="#b7ac9e">t</text><text x="152" y="238" fill="#b7ac9e">u</text><text x="160" y="238" fill="#b7ac9e">r</text><text x="168" y="238" fill="#b7ac9e">e</text><text x="184" y="238" fill="#b7ac9e">·</text><text x="200" y="238" fill="#b7ac9e">2</text><text x="208" y="238" fill="#b7ac9e">0</text><text x="216" y="238" fill="#b7ac9e">2</text><text x="224" y="238" fill="#b7ac9e">6</text><text x="232" y="238" fill="#b7ac9e">-</text><text x="240" y="238" fill="#b7ac9e">0</text><text x="248" y="238" fill="#b7ac9e">9</text><text x="256" y="238" fill="#b7ac9e">-</text><text x="264" y="238" fill="#b7ac9e">1</text><text x="272" y="238" fill="#b7ac9e">2</text><text x="288" y="238" fill="#b7ac9e">1</text><text x="296" y="238" fill="#b7ac9e">9</text><text x="304" y="238" fill="#b7ac9e">:</text><text x="312" y="238" fill="#b7ac9e">3</text><text x="320" y="238" fill="#b7ac9e">1</text><text x="336" y="238" fill="#b7ac9e">U</text><text x="344" y="238" fill="#b7ac9e">T</text><text x="352" y="238" fill="#b7ac9e">C</text><text x="368" y="238" fill="#b7ac9e">·</text><text x="384" y="238" fill="#b7ac9e">C</text><text x="392" y="238" fill="#b7ac9e">U</text><text x="400" y="238" fill="#b7ac9e">R</text><text x="408" y="238" fill="#b7ac9e">R</text><text x="416" y="238" fill="#b7ac9e">E</text><text x="424" y="238" fill="#b7ac9e">N</text><text x="432" y="238" fill="#b7ac9e">T</text><text x="32" y="256" fill="#f3ede5">R</text><text x="40" y="256" fill="#f3ede5">e</text><text x="48" y="256" fill="#f3ede5">c</text><text x="56" y="256" fill="#f3ede5">e</text><text x="64" y="256" fill="#f3ede5">n</text><text x="72" y="256" fill="#f3ede5">t</text><text x="88" y="256" fill="#f3ede5">c</text><text x="96" y="256" fill="#f3ede5">h</text><text x="104" y="256" fill="#f3ede5">a</text><text x="112" y="256" fill="#f3ede5">t</text><text x="128" y="256" fill="#f3ede5">2</text><text x="48" y="274" fill="#b7ac9e">t</text><text x="56" y="274" fill="#b7ac9e">e</text><text x="64" y="274" fill="#b7ac9e">r</text><text x="72" y="274" fill="#b7ac9e">m</text><text x="80" y="274" fill="#b7ac9e">i</text><text x="88" y="274" fill="#b7ac9e">n</text><text x="96" y="274" fill="#b7ac9e">a</text><text x="104" y="274" fill="#b7ac9e">l</text><text x="112" y="274" fill="#b7ac9e">-</text><text x="120" y="274" fill="#b7ac9e">f</text><text x="128" y="274" fill="#b7ac9e">i</text><text x="136" y="274" fill="#b7ac9e">x</text><text x="144" y="274" fill="#b7ac9e">t</text><text x="152" y="274" fill="#b7ac9e">u</text><text x="160" y="274" fill="#b7ac9e">r</text><text x="168" y="274" fill="#b7ac9e">e</text><text x="184" y="274" fill="#b7ac9e">·</text><text x="200" y="274" fill="#b7ac9e">2</text><text x="208" y="274" fill="#b7ac9e">0</text><text x="216" y="274" fill="#b7ac9e">2</text><text x="224" y="274" fill="#b7ac9e">6</text><text x="232" y="274" fill="#b7ac9e">-</text><text x="240" y="274" fill="#b7ac9e">0</text><text x="248" y="274" fill="#b7ac9e">9</text><text x="256" y="274" fill="#b7ac9e">-</text><text x="264" y="274" fill="#b7ac9e">1</text><text x="272" y="274" fill="#b7ac9e">2</text><text x="288" y="274" fill="#b7ac9e">1</text><text x="296" y="274" fill="#b7ac9e">9</text><text x="304" y="274" fill="#b7ac9e">:</text><text x="312" y="274" fill="#b7ac9e">3</text><text x="320" y="274" fill="#b7ac9e">1</text><text x="336" y="274" fill="#b7ac9e">U</text><text x="344" y="274" fill="#b7ac9e">T</text><text x="352" y="274" fill="#b7ac9e">C</text><text x="32" y="292" fill="#f3ede5">R</text><text x="40" y="292" fill="#f3ede5">e</text><text x="48" y="292" fill="#f3ede5">c</text><text x="56" y="292" fill="#f3ede5">e</text><text x="64" y="292" fill="#f3ede5">n</text><text x="72" y="292" fill="#f3ede5">t</text><text x="88" y="292" fill="#f3ede5">c</text><text x="96" y="292" fill="#f3ede5">h</text><text x="104" y="292" fill="#f3ede5">a</text><text x="112" y="292" fill="#f3ede5">t</text><text x="128" y="292" fill="#f3ede5">3</text><text x="48" y="310" fill="#b7ac9e">t</text><text x="56" y="310" fill="#b7ac9e">e</text><text x="64" y="310" fill="#b7ac9e">r</text><text x="72" y="310" fill="#b7ac9e">m</text><text x="80" y="310" fill="#b7ac9e">i</text><text x="88" y="310" fill="#b7ac9e">n</text><text x="96" y="310" fill="#b7ac9e">a</text><text x="104" y="310" fill="#b7ac9e">l</text><text x="112" y="310" fill="#b7ac9e">-</text><text x="120" y="310" fill="#b7ac9e">f</text><text x="128" y="310" fill="#b7ac9e">i</text><text x="136" y="310" fill="#b7ac9e">x</text><text x="144" y="310" fill="#b7ac9e">t</text><text x="152" y="310" fill="#b7ac9e">u</text><text x="160" y="310" fill="#b7ac9e">r</text><text x="168" y="310" fill="#b7ac9e">e</text><text x="184" y="310" fill="#b7ac9e">·</text><text x="200" y="310" fill="#b7ac9e">2</text><text x="208" y="310" fill="#b7ac9e">0</text><text x="216" y="310" fill="#b7ac9e">2</text><text x="224" y="310" fill="#b7ac9e">6</text><text x="232" y="310" fill="#b7ac9e">-</text><text x="240" y="310" fill="#b7ac9e">0</text><text x="248" y="310" fill="#b7ac9e">9</text><text x="256" y="310" fill="#b7ac9e">-</text><text x="264" y="310" fill="#b7ac9e">1</text><text x="272" y="310" fill="#b7ac9e">2</text><text x="288" y="310" fill="#b7ac9e">1</text><text x="296" y="310" fill="#b7ac9e">9</text><text x="304" y="310" fill="#b7ac9e">:</text><text x="312" y="310" fill="#b7ac9e">3</text><text x="320" y="310" fill="#b7ac9e">1</text><text x="336" y="310" fill="#b7ac9e">U</text><text x="344" y="310" fill="#b7ac9e">T</text><text x="352" y="310" fill="#b7ac9e">C</text><text x="32" y="328" fill="#f3ede5">R</text><text x="40" y="328" fill="#f3ede5">e</text><text x="48" y="328" fill="#f3ede5">c</text><text x="56" y="328" fill="#f3ede5">e</text><text x="64" y="328" fill="#f3ede5">n</text><text x="72" y="328" fill="#f3ede5">t</text><text x="88" y="328" fill="#f3ede5">c</text><text x="96" y="328" fill="#f3ede5">h</text><text x="104" y="328" fill="#f3ede5">a</text><text x="112" y="328" fill="#f3ede5">t</text><text x="128" y="328" fill="#f3ede5">4</text><text x="48" y="346" fill="#b7ac9e">t</text><text x="56" y="346" fill="#b7ac9e">e</text><text x="64" y="346" fill="#b7ac9e">r</text><text x="72" y="346" fill="#b7ac9e">m</text><text x="80" y="346" fill="#b7ac9e">i</text><text x="88" y="346" fill="#b7ac9e">n</text><text x="96" y="346" fill="#b7ac9e">a</text><text x="104" y="346" fill="#b7ac9e">l</text><text x="112" y="346" fill="#b7ac9e">-</text><text x="120" y="346" fill="#b7ac9e">f</text><text x="128" y="346" fill="#b7ac9e">i</text><text x="136" y="346" fill="#b7ac9e">x</text><text x="144" y="346" fill="#b7ac9e">t</text><text x="152" y="346" fill="#b7ac9e">u</text><text x="160" y="346" fill="#b7ac9e">r</text><text x="168" y="346" fill="#b7ac9e">e</text><text x="184" y="346" fill="#b7ac9e">·</text><text x="200" y="346" fill="#b7ac9e">2</text><text x="208" y="346" fill="#b7ac9e">0</text><text x="216" y="346" fill="#b7ac9e">2</text><text x="224" y="346" fill="#b7ac9e">6</text><text x="232" y="346" fill="#b7ac9e">-</text><text x="240" y="346" fill="#b7ac9e">0</text><text x="248" y="346" fill="#b7ac9e">9</text><text x="256" y="346" fill="#b7ac9e">-</text><text x="264" y="346" fill="#b7ac9e">1</text><text x="272" y="346" fill="#b7ac9e">2</text><text x="288" y="346" fill="#b7ac9e">1</text><text x="296" y="346" fill="#b7ac9e">9</text><text x="304" y="346" fill="#b7ac9e">:</text><text x="312" y="346" fill="#b7ac9e">3</text><text x="320" y="346" fill="#b7ac9e">1</text><text x="336" y="346" fill="#b7ac9e">U</text><text x="344" y="346" fill="#b7ac9e">T</text><text x="352" y="346" fill="#b7ac9e">C</text><text x="32" y="382" fill="#f3ede5" font-weight="bold">S</text><text x="40" y="382" fill="#f3ede5" font-weight="bold">t</text><text x="48" y="382" fill="#f3ede5" font-weight="bold">a</text><text x="56" y="382" fill="#f3ede5" font-weight="bold">r</text><text x="64" y="382" fill="#f3ede5" font-weight="bold">t</text><text x="80" y="382" fill="#f3ede5" font-weight="bold">n</text><text x="88" y="382" fill="#f3ede5" font-weight="bold">e</text><text x="96" y="382" fill="#f3ede5" font-weight="bold">w</text><text x="112" y="382" fill="#f3ede5" font-weight="bold">c</text><text x="120" y="382" fill="#f3ede5" font-weight="bold">h</text><text x="128" y="382" fill="#f3ede5" font-weight="bold">a</text><text x="136" y="382" fill="#f3ede5" font-weight="bold">t</text><text x="48" y="400" fill="#b7ac9e">K</text><text x="56" y="400" fill="#b7ac9e">e</text><text x="64" y="400" fill="#b7ac9e">e</text><text x="72" y="400" fill="#b7ac9e">p</text><text x="88" y="400" fill="#b7ac9e">t</text><text x="96" y="400" fill="#b7ac9e">h</text><text x="104" y="400" fill="#b7ac9e">i</text><text x="112" y="400" fill="#b7ac9e">s</text><text x="128" y="400" fill="#b7ac9e">m</text><text x="136" y="400" fill="#b7ac9e">o</text><text x="144" y="400" fill="#b7ac9e">d</text><text x="152" y="400" fill="#b7ac9e">e</text><text x="160" y="400" fill="#b7ac9e">l</text><text x="176" y="400" fill="#b7ac9e">a</text><text x="184" y="400" fill="#b7ac9e">n</text><text x="192" y="400" fill="#b7ac9e">d</text><text x="208" y="400" fill="#b7ac9e">p</text><text x="216" y="400" fill="#b7ac9e">e</text><text x="224" y="400" fill="#b7ac9e">r</text><text x="232" y="400" fill="#b7ac9e">m</text><text x="240" y="400" fill="#b7ac9e">i</text><text x="248" y="400" fill="#b7ac9e">s</text><text x="256" y="400" fill="#b7ac9e">s</text><text x="264" y="400" fill="#b7ac9e">i</text><text x="272" y="400" fill="#b7ac9e">o</text><text x="280" y="400" fill="#b7ac9e">n</text><text x="288" y="400" fill="#b7ac9e">s</text><text x="296" y="400" fill="#b7ac9e">;</text><text x="312" y="400" fill="#b7ac9e">c</text><text x="320" y="400" fill="#b7ac9e">o</text><text x="328" y="400" fill="#b7ac9e">n</text><text x="336" y="400" fill="#b7ac9e">f</text><text x="344" y="400" fill="#b7ac9e">i</text><text x="352" y="400" fill="#b7ac9e">g</text><text x="360" y="400" fill="#b7ac9e">u</text><text x="368" y="400" fill="#b7ac9e">r</text><text x="376" y="400" fill="#b7ac9e">e</text><text x="392" y="400" fill="#b7ac9e">t</text><text x="400" y="400" fill="#b7ac9e">h</text><text x="408" y="400" fill="#b7ac9e">e</text><text x="424" y="400" fill="#b7ac9e">t</text><text x="432" y="400" fill="#b7ac9e">e</text><text x="440" y="400" fill="#b7ac9e">a</text><text x="448" y="400" fill="#b7ac9e">m</text><text x="464" y="400" fill="#b7ac9e">a</text><text x="472" y="400" fill="#b7ac9e">n</text><text x="480" y="400" fill="#b7ac9e">y</text><text x="488" y="400" fill="#b7ac9e">t</text><text x="496" y="400" fill="#b7ac9e">i</text><text x="504" y="400" fill="#b7ac9e">m</text><text x="512" y="400" fill="#b7ac9e">e</text><text x="16" y="544" fill="#b7ac9e">─</text><text x="24" y="544" fill="#b7ac9e">─</text><text x="32" y="544" fill="#b7ac9e">─</text><text x="40" y="544" fill="#b7ac9e">─</text><text x="48" y="544" fill="#b7ac9e">─</text><text x="56" y="544" fill="#b7ac9e">─</text><text x="64" y="544" fill="#b7ac9e">─</text><text x="72" y="544" fill="#b7ac9e">─</text><text x="80" y="544" fill="#b7ac9e">─</text><text x="88" y="544" fill="#b7ac9e">─</text><text x="96" y="544" fill="#b7ac9e">─</text><text x="104" y="544" fill="#b7ac9e">─</text><text x="112" y="544" fill="#b7ac9e">─</text><text x="120" y="544" fill="#b7ac9e">─</text><text x="128" y="544" fill="#b7ac9e">─</text><text x="136" y="544" fill="#b7ac9e">─</text><text x="144" y="544" fill="#b7ac9e">─</text><text x="152" y="544" fill="#b7ac9e">─</text><text x="160" y="544" fill="#b7ac9e">─</text><text x="168" y="544" fill="#b7ac9e">─</text><text x="176" y="544" fill="#b7ac9e">─</text><text x="184" y="544" fill="#b7ac9e">─</text><text x="192" y="544" fill="#b7ac9e">─</text><text x="200" y="544" fill="#b7ac9e">─</text><text x="208" y="544" fill="#b7ac9e">─</text><text x="216" y="544" fill="#b7ac9e">─</text><text x="224" y="544" fill="#b7ac9e">─</text><text x="232" y="544" fill="#b7ac9e">─</text><text x="240" y="544" fill="#b7ac9e">─</text><text x="248" y="544" fill="#b7ac9e">─</text><text x="256" y="544" fill="#b7ac9e">─</text><text x="264" y="544" fill="#b7ac9e">─</text><text x="272" y="544" fill="#b7ac9e">─</text><text x="280" y="544" fill="#b7ac9e">─</text><text x="288" y="544" fill="#b7ac9e">─</text><text x="296" y="544" fill="#b7ac9e">─</text><text x="304" y="544" fill="#b7ac9e">─</text><text x="312" y="544" fill="#b7ac9e">─</text><text x="320" y="544" fill="#b7ac9e">─</text><text x="328" y="544" fill="#b7ac9e">─</text><text x="336" y="544" fill="#b7ac9e">─</text><text x="344" y="544" fill="#b7ac9e">─</text><text x="352" y="544" fill="#b7ac9e">─</text><text x="360" y="544" fill="#b7ac9e">─</text><text x="368" y="544" fill="#b7ac9e">─</text><text x="376" y="544" fill="#b7ac9e">─</text><text x="384" y="544" fill="#b7ac9e">─</text><text x="392" y="544" fill="#b7ac9e">─</text><text x="400" y="544" fill="#b7ac9e">─</text><text x="408" y="544" fill="#b7ac9e">─</text><text x="416" y="544" fill="#b7ac9e">─</text><text x="424" y="544" fill="#b7ac9e">─</text><text x="432" y="544" fill="#b7ac9e">─</text><text x="440" y="544" fill="#b7ac9e">─</text><text x="448" y="544" fill="#b7ac9e">─</text><text x="456" y="544" fill="#b7ac9e">─</text><text x="464" y="544" fill="#b7ac9e">─</text><text x="472" y="544" fill="#b7ac9e">─</text><text x="480" y="544" fill="#b7ac9e">─</text><text x="488" y="544" fill="#b7ac9e">─</text><text x="496" y="544" fill="#b7ac9e">─</text><text x="504" y="544" fill="#b7ac9e">─</text><text x="512" y="544" fill="#b7ac9e">─</text><text x="520" y="544" fill="#b7ac9e">─</text><text x="528" y="544" fill="#b7ac9e">─</text><text x="536" y="544" fill="#b7ac9e">─</text><text x="544" y="544" fill="#b7ac9e">─</text><text x="552" y="544" fill="#b7ac9e">─</text><text x="560" y="544" fill="#b7ac9e">─</text><text x="568" y="544" fill="#b7ac9e">─</text><text x="576" y="544" fill="#b7ac9e">─</text><text x="584" y="544" fill="#b7ac9e">─</text><text x="592" y="544" fill="#b7ac9e">─</text><text x="600" y="544" fill="#b7ac9e">─</text><text x="608" y="544" fill="#b7ac9e">─</text><text x="616" y="544" fill="#b7ac9e">─</text><text x="624" y="544" fill="#b7ac9e">─</text><text x="632" y="544" fill="#b7ac9e">─</text><text x="640" y="544" fill="#b7ac9e">─</text><text x="648" y="544" fill="#b7ac9e">─</text><text x="656" y="544" fill="#b7ac9e">─</text><text x="664" y="544" fill="#b7ac9e">─</text><text x="672" y="544" fill="#b7ac9e">─</text><text x="680" y="544" fill="#b7ac9e">─</text><text x="688" y="544" fill="#b7ac9e">─</text><text x="696" y="544" fill="#b7ac9e">─</text><text x="704" y="544" fill="#b7ac9e">─</text><text x="712" y="544" fill="#b7ac9e">─</text><text x="720" y="544" fill="#b7ac9e">─</text><text x="728" y="544" fill="#b7ac9e">─</text><text x="736" y="544" fill="#b7ac9e">─</text><text x="744" y="544" fill="#b7ac9e">─</text><text x="752" y="544" fill="#b7ac9e">─</text><text x="760" y="544" fill="#b7ac9e">─</text><text x="768" y="544" fill="#b7ac9e">─</text><text x="776" y="544" fill="#b7ac9e">─</text><text x="784" y="544" fill="#b7ac9e">─</text><text x="792" y="544" fill="#b7ac9e">─</text><text x="800" y="544" fill="#b7ac9e">─</text><text x="808" y="544" fill="#b7ac9e">─</text><text x="16" y="562" fill="#b7ac9e">E</text><text x="24" y="562" fill="#b7ac9e">n</text><text x="32" y="562" fill="#b7ac9e">t</text><text x="40" y="562" fill="#b7ac9e">e</text><text x="48" y="562" fill="#b7ac9e">r</text><text x="64" y="562" fill="#b7ac9e">o</text><text x="72" y="562" fill="#b7ac9e">p</text><text x="80" y="562" fill="#b7ac9e">e</text><text x="88" y="562" fill="#b7ac9e">n</text><text x="104" y="562" fill="#b7ac9e">·</text><text x="120" y="562" fill="#b7ac9e">M</text><text x="136" y="562" fill="#b7ac9e">m</text><text x="144" y="562" fill="#b7ac9e">a</text><text x="152" y="562" fill="#b7ac9e">n</text><text x="160" y="562" fill="#b7ac9e">a</text><text x="168" y="562" fill="#b7ac9e">g</text><text x="176" y="562" fill="#b7ac9e">e</text><text x="192" y="562" fill="#b7ac9e">·</text><text x="208" y="562" fill="#b7ac9e">A</text><text x="224" y="562" fill="#b7ac9e">a</text><text x="232" y="562" fill="#b7ac9e">r</text><text x="240" y="562" fill="#b7ac9e">c</text><text x="248" y="562" fill="#b7ac9e">h</text><text x="256" y="562" fill="#b7ac9e">i</text><text x="264" y="562" fill="#b7ac9e">v</text><text x="272" y="562" fill="#b7ac9e">e</text><text x="280" y="562" fill="#b7ac9e">d</text><text x="296" y="562" fill="#b7ac9e">·</text><text x="312" y="562" fill="#b7ac9e">q</text><text x="328" y="562" fill="#b7ac9e">q</text><text x="336" y="562" fill="#b7ac9e">u</text><text x="344" y="562" fill="#b7ac9e">i</text><text x="352" y="562" fill="#b7ac9e">t</text></g></svg>