<svg xmlns="http://www.w3.org/2000/svg" width="832" height="586"><rect width="832" height="586" rx="10" fill="#111827"/><text x="16" y="18" fill="#9ca3af" font-family="monospace" font-size="11">Recurs · actual installed terminal · v19-working</text><g shape-rendering="crispEdges"><rect x="16" y="26" width="800" height="18" fill="#191714"/><rect x="16" y="44" width="800" height="18" fill="#191714"/><rect x="16" y="62" width="800" height="18" fill="#191714"/><rect x="16" y="80" width="800" height="18" fill="#191714"/><rect x="16" y="98" width="800" height="18" fill="#191714"/><rect x="16" y="116" width="800" height="18" fill="#191714"/><rect x="16" y="134" width="800" height="18" fill="#191714"/><rect x="16" y="152" width="800" height="18" fill="#191714"/><rect x="16" y="170" width="800" height="18" fill="#191714"/><rect x="16" y="188" width="800" height="18" fill="#191714"/><rect x="16" y="206" width="800" height="18" fill="#191714"/><rect x="16" y="224" width="800" height="18" fill="#191714"/><rect x="16" y="242" width="800" height="18" fill="#191714"/><rect x="16" y="260" width="800" height="18" fill="#191714"/><rect x="16" y="278" width="800" height="18" fill="#191714"/><rect x="16" y="296" width="800" height="18" fill="#191714"/><rect x="16" y="314" width="800" height="18" fill="#191714"/><rect x="16" y="332" width="800" height="18" fill="#191714"/><rect x="16" y="350" width="800" height="18" fill="#191714"/><rect x="16" y="368" width="800" height="18" fill="#191714"/><rect x="16" y="386" width="800" height="18" fill="#191714"/><rect x="16" y="404" width="800" height="18" fill="#191714"/><rect x="16" y="422" width="800" height="18" fill="#191714"/><rect x="16" y="440" width="800" height="18" fill="#191714"/><rect x="16" y="458" width="800" height="18" fill="#191714"/><rect x="16" y="476" width="800" height="18" fill="#191714"/><rect x="16" y="494" width="800" height="18" fill="#191714"/><rect x="16" y="512" width="800" height="18" fill="#191714"/><rect x="16" y="530" width="800" height="18" fill="#191714"/><rect x="16" y="548" width="800" height="18" fill="#191714"/></g><g font-family="monospace" font-size="13"><text x="16" y="40" fill="#f3a05b">R</text><text x="24" y="40" fill="#f3a05b">e</text><text x="32" y="40" fill="#f3a05b">c</text><text x="40" y="40" fill="#f3a05b">u</text><text x="48" y="40" fill="#f3a05b">r</text><text x="56" y="40" fill="#f3a05b">s</text><text x="72" y="40" fill="#f3a05b">·</text><text x="88" y="40" fill="#f3a05b">p</text><text x="96" y="40" fill="#f3a05b">a</text><text x="104" y="40" fill="#f3a05b">r</text><text x="112" y="40" fill="#f3a05b">s</text><text x="120" y="40" fill="#f3a05b">e</text><text x="128" y="40" fill="#f3a05b">r</text><text x="136" y="40" fill="#f3a05b">-</text><text x="144" y="40" fill="#f3a05b">p</text><text x="152" y="40" fill="#f3a05b">r</text><text x="160" y="40" fill="#f3a05b">o</text><text x="168" y="40" fill="#f3a05b">j</text><text x="176" y="40" fill="#f3a05b">e</text><text x="184" y="40" fill="#f3a05b">c</text><text x="192" y="40" fill="#f3a05b">t</text><text x="208" y="40" fill="#f3a05b">·</text><text x="224" y="40" fill="#f3a05b">T</text><text x="232" y="40" fill="#f3a05b">e</text><text x="240" y="40" fill="#f3a05b">a</text><text x="248" y="40" fill="#f3a05b">m</text><text x="16" y="58" fill="#b7ac9e">t</text><text x="24" y="58" fill="#b7ac9e">e</text><text x="32" y="58" fill="#b7ac9e">r</text><text x="40" y="58" fill="#b7ac9e">m</text><text x="48" y="58" fill="#b7ac9e">i</text><text x="56" y="58" fill="#b7ac9e">n</text><text x="64" y="58" fill="#b7ac9e">a</text><text x="72" y="58" fill="#b7ac9e">l</text><text x="80" y="58" fill="#b7ac9e">-</text><text x="88" y="58" fill="#b7ac9e">f</text><text x="96" y="58" fill="#b7ac9e">i</text><text x="104" y="58" fill="#b7ac9e">x</text><text x="112" y="58" fill="#b7ac9e">t</text><text x="120" y="58" fill="#b7ac9e">u</text><text x="128" y="58" fill="#b7ac9e">r</text><text x="136" y="58" fill="#b7ac9e">e</text><text x="152" y="58" fill="#b7ac9e">·</text><text x="168" y="58" fill="#b7ac9e">B</text><text x="176" y="58" fill="#b7ac9e">a</text><text x="184" y="58" fill="#b7ac9e">l</text><text x="192" y="58" fill="#b7ac9e">a</text><text x="200" y="58" fill="#b7ac9e">n</text><text x="208" y="58" fill="#b7ac9e">c</text><text x="216" y="58" fill="#b7ac9e">e</text><text x="224" y="58" fill="#b7ac9e">d</text><text x="240" y="58" fill="#b7ac9e">·</text><text x="256" y="58" fill="#b7ac9e">A</text><text x="264" y="58" fill="#b7ac9e">s</text><text x="272" y="58" fill="#b7ac9e">k</text><text x="288" y="58" fill="#b7ac9e">A</text><text x="296" y="58" fill="#b7ac9e">l</text><text x="304" y="58" fill="#b7ac9e">w</text><text x="312" y="58" fill="#b7ac9e">a</text><text x="320" y="58" fill="#b7ac9e">y</text><text x="328" y="58" fill="#b7ac9e">s</text><text x="16" y="94" fill="#f3ede5" font-weight="bold">1</text><text x="32" y="94" fill="#f3ede5" font-weight="bold">a</text><text x="40" y="94" fill="#f3ede5" font-weight="bold">c</text><text x="48" y="94" fill="#f3ede5" font-weight="bold">t</text><text x="56" y="94" fill="#f3ede5" font-weight="bold">u</text><text x="64" y="94" fill="#f3ede5" font-weight="bold">a</text><text x="72" y="94" fill="#f3ede5" font-weight="bold">l</text><text x="88" y="94" fill="#f3ede5" font-weight="bold">c</text><text x="96" y="94" fill="#f3ede5" font-weight="bold">h</text><text x="104" y="94" fill="#f3ede5" font-weight="bold">i</text><text x="112" y="94" fill="#f3ede5" font-weight="bold">l</text><text x="120" y="94" fill="#f3ede5" font-weight="bold">d</text><text x="136" y="94" fill="#f3ede5" font-weight="bold">e</text><text x="144" y="94" fill="#f3ede5" font-weight="bold">x</text><text x="152" y="94" fill="#f3ede5" font-weight="bold">e</text><text x="160" y="94" fill="#f3ede5" font-weight="bold">c</text><text x="168" y="94" fill="#f3ede5" font-weight="bold">u</text><text x="176" y="94" fill="#f3ede5" font-weight="bold">t</text><text x="184" y="94" fill="#f3ede5" font-weight="bold">i</text><text x="192" y="94" fill="#f3ede5" font-weight="bold">o</text><text x="200" y="94" fill="#f3ede5" font-weight="bold">n</text><text x="208" y="94" fill="#f3ede5" font-weight="bold">s</text><text x="224" y="94" fill="#f3ede5" font-weight="bold">·</text><text x="240" y="94" fill="#f3ede5" font-weight="bold">1</text><text x="256" y="94" fill="#f3ede5" font-weight="bold">r</text><text x="264" y="94" fill="#f3ede5" font-weight="bold">u</text><text x="272" y="94" fill="#f3ede5" font-weight="bold">n</text><text x="280" y="94" fill="#f3ede5" font-weight="bold">n</text><text x="288" y="94" fill="#f3ede5" font-weight="bold">i</text><text x="296" y="94" fill="#f3ede5" font-weight="bold">n</text><text x="304" y="94" fill="#f3ede5" font-weight="bold">g</text><text x="16" y="112" fill="#f3a05b">S</text><text x="24" y="112" fill="#f3a05b">t</text><text x="32" y="112" fill="#f3a05b">a</text><text x="40" y="112" fill="#f3a05b">r</text><text x="48" y="112" fill="#f3a05b">t</text><text x="64" y="112" fill="#f3a05b">a</text><text x="80" y="112" fill="#f3a05b">c</text><text x="88" y="112" fill="#f3a05b">o</text><text x="96" y="112" fill="#f3a05b">d</text><text x="104" y="112" fill="#f3a05b">i</text><text x="112" y="112" fill="#f3a05b">n</text><text x="120" y="112" fill="#f3a05b">g</text><text x="136" y="112" fill="#f3a05b">t</text><text x="144" y="112" fill="#f3a05b">a</text><text x="152" y="112" fill="#f3a05b">s</text><text x="160" y="112" fill="#f3a05b">k</text><text x="176" y="112" fill="#f3a05b">i</text><text x="184" y="112" fill="#f3a05b">n</text><text x="200" y="112" fill="#f3a05b">c</text><text x="208" y="112" fill="#f3a05b">h</text><text x="216" y="112" fill="#f3a05b">a</text><text x="224" y="112" fill="#f3a05b">t</text><text x="232" y="112" fill="#f3a05b">,</text><text x="248" y="112" fill="#f3a05b">o</text><text x="256" y="112" fill="#f3a05b">r</text><text x="272" y="112" fill="#f3a05b">l</text><text x="280" y="112" fill="#f3a05b">a</text><text x="288" y="112" fill="#f3a05b">u</text><text x="296" y="112" fill="#f3a05b">n</text><text x="304" y="112" fill="#f3a05b">c</text><text x="312" y="112" fill="#f3a05b">h</text><text x="328" y="112" fill="#f3a05b">a</text><text x="336" y="112" fill="#f3a05b">n</text><text x="352" y="112" fill="#f3a05b">a</text><text x="360" y="112" fill="#f3a05b">p</text><text x="368" y="112" fill="#f3a05b">p</text><text x="376" y="112" fill="#f3a05b">r</text><text x="384" y="112" fill="#f3a05b">o</text><text x="392" y="112" fill="#f3a05b">v</text><text x="400" y="112" fill="#f3a05b">e</text><text x="408" y="112" fill="#f3a05b">d</text><text x="424" y="112" fill="#f3a05b">g</text><text x="432" y="112" fill="#f3a05b">o</text><text x="440" y="112" fill="#f3a05b">a</text><text x="448" y="112" fill="#f3a05b">l</text><text x="456" y="112" fill="#f3a05b">.</text><text x="400" y="130" fill="#f3a05b">▟</text><text x="408" y="130" fill="#f3a05b">█</text><text x="416" y="130" fill="#f3a05b">▙</text><text x="384" y="148" fill="#f3a05b">&gt;</text><text x="400" y="148" fill="#f3a05b">P</text><text x="408" y="148" fill="#f3a05b">a</text><text x="416" y="148" fill="#f3a05b">r</text><text x="424" y="148" fill="#f3a05b">e</text><text x="432" y="148" fill="#f3a05b">n</text><text x="440" y="148" fill="#f3a05b">t</text><text x="384" y="166" fill="#f3a05b">r</text><text x="392" y="166" fill="#f3a05b">u</text><text x="400" y="166" fill="#f3a05b">n</text><text x="408" y="166" fill="#f3a05b">n</text><text x="416" y="166" fill="#f3a05b">i</text><text x="424" y="166" fill="#f3a05b">n</text><text x="432" y="166" fill="#f3a05b">g</text><text x="416" y="184" fill="#f3a05b">│</text><text x="400" y="202" fill="#f3a05b">▟</text><text x="408" y="202" fill="#f3a05b">█</text><text x="416" y="202" fill="#f3a05b">▙</text><text x="384" y="220" fill="#f3a05b">e</text><text x="392" y="220" fill="#f3a05b">x</text><text x="400" y="220" fill="#f3a05b">p</text><text x="408" y="220" fill="#f3a05b">l</text><text x="416" y="220" fill="#f3a05b">o</text><text x="424" y="220" fill="#f3a05b">r</text><text x="432" y="220" fill="#f3a05b">e</text><text x="384" y="238" fill="#f3a05b">r</text><text x="392" y="238" fill="#f3a05b">u</text><text x="400" y="238" fill="#f3a05b">n</text><text x="408" y="238" fill="#f3a05b">n</text><text x="416" y="238" fill="#f3a05b">i</text><text x="424" y="238" fill="#f3a05b">n</text><text x="432" y="238" fill="#f3a05b">g</text><text x="16" y="472" fill="#f3a05b">P</text><text x="24" y="472" fill="#f3a05b">a</text><text x="32" y="472" fill="#f3a05b">r</text><text x="40" y="472" fill="#f3a05b">e</text><text x="48" y="472" fill="#f3a05b">n</text><text x="56" y="472" fill="#f3a05b">t</text><text x="72" y="472" fill="#f3a05b">·</text><text x="88" y="472" fill="#f3a05b">r</text><text x="96" y="472" fill="#f3a05b">u</text><text x="104" y="472" fill="#f3a05b">n</text><text x="112" y="472" fill="#f3a05b">n</text><text x="120" y="472" fill="#f3a05b">i</text><text x="128" y="472" fill="#f3a05b">n</text><text x="136" y="472" fill="#f3a05b">g</text><text x="152" y="472" fill="#f3a05b">·</text><text x="168" y="472" fill="#f3a05b">t</text><text x="176" y="472" fill="#f3a05b">e</text><text x="184" y="472" fill="#f3a05b">r</text><text x="192" y="472" fill="#f3a05b">m</text><text x="200" y="472" fill="#f3a05b">i</text><text x="208" y="472" fill="#f3a05b">n</text><text x="216" y="472" fill="#f3a05b">a</text><text x="224" y="472" fill="#f3a05b">l</text><text x="232" y="472" fill="#f3a05b">-</text><text x="240" y="472" fill="#f3a05b">f</text><text x="248" y="472" fill="#f3a05b">i</text><text x="256" y="472" fill="#f3a05b">x</text><text x="264" y="472" fill="#f3a05b">t</text><text x="272" y="472" fill="#f3a05b">u</text><text x="280" y="472" fill="#f3a05b">r</text><text x="288" y="472" fill="#f3a05b">e</text><text x="304" y="472" fill="#f3a05b">·</text><text x="320" y="472" fill="#f3a05b">W</text><text x="328" y="472" fill="#f3a05b">o</text><text x="336" y="472" fill="#f3a05b">r</text><text x="344" y="472" fill="#f3a05b">k</text><text x="352" y="472" fill="#f3a05b">i</text><text x="360" y="472" fill="#f3a05b">n</text><text x="368" y="472" fill="#f3a05b">g</text><text x="384" y="472" fill="#f3a05b">·</text><text x="400" y="472" fill="#f3a05b">C</text><text x="408" y="472" fill="#f3a05b">t</text><text x="416" y="472" fill="#f3a05b">r</text><text x="424" y="472" fill="#f3a05b">l</text><text x="432" y="472" fill="#f3a05b">+</text><text x="440" y="472" fill="#f3a05b">G</text><text x="456" y="472" fill="#f3a05b">c</text><text x="464" y="472" fill="#f3a05b">o</text><text x="472" y="472" fill="#f3a05b">n</text><text x="480" y="472" fill="#f3a05b">v</text><text x="488" y="472" fill="#f3a05b">e</text><text x="496" y="472" fill="#f3a05b">r</text><text x="504" y="472" fill="#f3a05b">s</text><text x="512" y="472" fill="#f3a05b">a</text><text x="520" y="472" fill="#f3a05b">t</text><text x="528" y="472" fill="#f3a05b">i</text><text x="536" y="472" fill="#f3a05b">o</text><text x="544" y="472" fill="#f3a05b">n</text><text x="16" y="490" fill="#f3a05b">─</text><text x="24" y="490" fill="#f3a05b">─</text><text x="32" y="490" fill="#f3a05b">─</text><text x="40" y="490" fill="#f3a05b">─</text><text x="48" y="490" fill="#f3a05b">─</text><text x="56" y="490" fill="#f3a05b">─</text><text x="64" y="490" fill="#f3a05b">─</text><text x="72" y="490" fill="#f3a05b">─</text><text x="80" y="490" fill="#f3a05b">─</text><text x="88" y="490" fill="#f3a05b">─</text><text x="96" y="490" fill="#f3a05b">─</text><text x="104" y="490" fill="#f3a05b">─</text><text x="112" y="490" fill="#f3a05b">─</text><text x="120" y="490" fill="#f3a05b">─</text><text x="128" y="490" fill="#f3a05b">─</text><text x="136" y="490" fill="#f3a05b">─</text><text x="144" y="490" fill="#f3a05b">─</text><text x="152" y="490" fill="#f3a05b">─</text><text x="160" y="490" fill="#f3a05b">─</text><text x="168" y="490" fill="#f3a05b">─</text><text x="176" y="490" fill="#f3a05b">─</text><text x="184" y="490" fill="#f3a05b">─</text><text x="192" y="490" fill="#f3a05b">─</text><text x="200" y="490" fill="#f3a05b">─</text><text x="208" y="490" fill="#f3a05b">─</text><text x="216" y="490" fill="#f3a05b">─</text><text x="224" y="490" fill="#f3a05b">─</text><text x="232" y="490" fill="#f3a05b">─</text><text x="240" y="490" fill="#f3a05b">─</text><text x="248" y="490" fill="#f3a05b">─</text><text x="256" y="490" fill="#f3a05b">─</text><text x="264" y="490" fill="#f3a05b">─</text><text x="272" y="490" fill="#f3a05b">─</text><text x="280" y="490" fill="#f3a05b">─</text><text x="288" y="490" fill="#f3a05b">─</text><text x="296" y="490" fill="#f3a05b">─</text><text x="304" y="490" fill="#f3a05b">─</text><text x="312" y="490" fill="#f3a05b">─</text><text x="320" y="490" fill="#f3a05b">─</text><text x="328" y="490" fill="#f3a05b">─</text><text x="336" y="490" fill="#f3a05b">─</text><text x="344" y="490" fill="#f3a05b">─</text><text x="352" y="490" fill="#f3a05b">─</text><text x="360" y="490" fill="#f3a05b">─</text><text x="368" y="490" fill="#f3a05b">─</text><text x="376" y="490" fill="#f3a05b">─</text><text x="384" y="490" fill="#f3a05b">─</text><text x="392" y="490" fill="#f3a05b">─</text><text x="400" y="490" fill="#f3a05b">─</text><text x="408" y="490" fill="#f3a05b">─</text><text x="416" y="490" fill="#f3a05b">─</text><text x="424" y="490" fill="#f3a05b">─</text><text x="432" y="490" fill="#f3a05b">─</text><text x="440" y="490" fill="#f3a05b">─</text><text x="448" y="490" fill="#f3a05b">─</text><text x="456" y="490" fill="#f3a05b">─</text><text x="464" y="490" fill="#f3a05b">─</text><text x="472" y="490" fill="#f3a05b">─</text><text x="480" y="490" fill="#f3a05b">─</text><text x="488" y="490" fill="#f3a05b">─</text><text x="496" y="490" fill="#f3a05b">─</text><text x="504" y="490" fill="#f3a05b">─</text><text x="512" y="490" fill="#f3a05b">─</text><text x="520" y="490" fill="#f3a05b">─</text><text x="528" y="490" fill="#f3a05b">─</text><text x="536" y="490" fill="#f3a05b">─</text><text x="544" y="490" fill="#f3a05b">─</text><text x="552" y="490" fill="#f3a05b">─</text><text x="560" y="490" fill="#f3a05b">─</text><text x="568" y="490" fill="#f3a05b">─</text><text x="576" y="490" fill="#f3a05b">─</text><text x="584" y="490" fill="#f3a05b">─</text><text x="592" y="490" fill="#f3a05b">─</text><text x="600" y="490" fill="#f3a05b">─</text><text x="608" y="490" fill="#f3a05b">─</text><text x="616" y="490" fill="#f3a05b">─</text><text x="624" y="490" fill="#f3a05b">─</text><text x="632" y="490" fill="#f3a05b">─</text><text x="640" y="490" fill="#f3a05b">─</text><text x="648" y="490" fill="#f3a05b">─</text><text x="656" y="490" fill="#f3a05b">─</text><text x="664" y="490" fill="#f3a05b">─</text><text x="672" y="490" fill="#f3a05b">─</text><text x="680" y="490" fill="#f3a05b">─</text><text x="688" y="490" fill="#f3a05b">─</text><text x="696" y="490" fill="#f3a05b">─</text><text x="704" y="490" fill="#f3a05b">─</text><text x="712" y="490" fill="#f3a05b">─</text><text x="720" y="490" fill="#f3a05b">─</text><text x="728" y="490" fill="#f3a05b">─</text><text x="736" y="490" fill="#f3a05b">─</text><text x="744" y="490" fill="#f3a05b">─</text><text x="752" y="490" fill="#f3a05b">─</text><text x="760" y="490" fill="#f3a05b">─</text><text x="768" y="490" fill="#f3a05b">─</text><text x="776" y="490" fill="#f3a05b">─</text><text x="784" y="490" fill="#f3a05b">─</text><text x="792" y="490" fill="#f3a05b">─</text><text x="800" y="490" fill="#f3a05b">─</text><text x="808" y="490" fill="#f3a05b">─</text><text x="16" y="526" fill="#f3a05b">─</text><text x="24" y="526" fill="#f3a05b">─</text><text x="32" y="526" fill="#f3a05b">─</text><text x="40" y="526" fill="#f3a05b">─</text><text x="48" y="526" fill="#f3a05b">─</text><text x="56" y="526" fill="#f3a05b">─</text><text x="64" y="526" fill="#f3a05b">─</text><text x="72" y="526" fill="#f3a05b">─</text><text x="80" y="526" fill="#f3a05b">─</text><text x="88" y="526" fill="#f3a05b">─</text><text x="96" y="526" fill="#f3a05b">─</text><text x="104" y="526" fill="#f3a05b">─</text><text x="112" y="526" fill="#f3a05b">─</text><text x="120" y="526" fill="#f3a05b">─</text><text x="128" y="526" fill="#f3a05b">─</text><text x="136" y="526" fill="#f3a05b">─</text><text x="144" y="526" fill="#f3a05b">─</text><text x="152" y="526" fill="#f3a05b">─</text><text x="160" y="526" fill="#f3a05b">─</text><text x="168" y="526" fill="#f3a05b">─</text><text x="176" y="526" fill="#f3a05b">─</text><text x="184" y="526" fill="#f3a05b">─</text><text x="192" y="526" fill="#f3a05b">─</text><text x="200" y="526" fill="#f3a05b">─</text><text x="208" y="526" fill="#f3a05b">─</text><text x="216" y="526" fill="#f3a05b">─</text><text x="224" y="526" fill="#f3a05b">─</text><text x="232" y="526" fill="#f3a05b">─</text><text x="240" y="526" fill="#f3a05b">─</text><text x="248" y="526" fill="#f3a05b">─</text><text x="256" y="526" fill="#f3a05b">─</text><text x="264" y="526" fill="#f3a05b">─</text><text x="272" y="526" fill="#f3a05b">─</text><text x="280" y="526" fill="#f3a05b">─</text><text x="288" y="526" fill="#f3a05b">─</text><text x="296" y="526" fill="#f3a05b">─</text><text x="304" y="526" fill="#f3a05b">─</text><text x="312" y="526" fill="#f3a05b">─</text><text x="320" y="526" fill="#f3a05b">─</text><text x="328" y="526" fill="#f3a05b">─</text><text x="336" y="526" fill="#f3a05b">─</text><text x="344" y="526" fill="#f3a05b">─</text><text x="352" y="526" fill="#f3a05b">─</text><text x="360" y="526" fill="#f3a05b">─</text><text x="368" y="526" fill="#f3a05b">─</text><text x="376" y="526" fill="#f3a05b">─</text><text x="384" y="526" fill="#f3a05b">─</text><text x="392" y="526" fill="#f3a05b">─</text><text x="400" y="526" fill="#f3a05b">─</text><text x="408" y="526" fill="#f3a05b">─</text><text x="416" y="526" fill="#f3a05b">─</text><text x="424" y="526" fill="#f3a05b">─</text><text x="432" y="526" fill="#f3a05b">─</text><text x="440" y="526" fill="#f3a05b">─</text><text x="448" y="526" fill="#f3a05b">─</text><text x="456" y="526" fill="#f3a05b">─</text><text x="464" y="526" fill="#f3a05b">─</text><text x="472" y="526" fill="#f3a05b">─</text><text x="480" y="526" fill="#f3a05b">─</text><text x="488" y="526" fill="#f3a05b">─</text><text x="496" y="526" fill="#f3a05b">─</text><text x="504" y="526" fill="#f3a05b">─</text><text x="512" y="526" fill="#f3a05b">─</text><text x="520" y="526" fill="#f3a05b">─</text><text x="528" y="526" fill="#f3a05b">─</text><text x="536" y="526" fill="#f3a05b">─</text><text x="544" y="526" fill="#f3a05b">─</text><text x="552" y="526" fill="#f3a05b">─</text><text x="560" y="526" fill="#f3a05b">─</text><text x="568" y="526" fill="#f3a05b">─</text><text x="576" y="526" fill="#f3a05b">─</text><text x="584" y="526" fill="#f3a05b">─</text><text x="592" y="526" fill="#f3a05b">─</text><text x="600" y="526" fill="#f3a05b">─</text><text x="608" y="526" fill="#f3a05b">─</text><text x="616" y="526" fill="#f3a05b">─</text><text x="624" y="526" fill="#f3a05b">─</text><text x="632" y="526" fill="#f3a05b">─</text><text x="640" y="526" fill="#f3a05b">─</text><text x="648" y="526" fill="#f3a05b">─</text><text x="656" y="526" fill="#f3a05b">─</text><text x="664" y="526" fill="#f3a05b">─</text><text x="672" y="526" fill="#f3a05b">─</text><text x="680" y="526" fill="#f3a05b">─</text><text x="688" y="526" fill="#f3a05b">─</text><text x="696" y="526" fill="#f3a05b">─</text><text x="704" y="526" fill="#f3a05b">─</text><text x="712" y="526" fill="#f3a05b">─</text><text x="720" y="526" fill="#f3a05b">─</text><text x="728" y="526" fill="#f3a05b">─</text><text x="736" y="526" fill="#f3a05b">─</text><text x="744" y="526" fill="#f3a05b">─</text><text x="752" y="526" fill="#f3a05b">─</text><text x="760" y="526" fill="#f3a05b">─</text><text x="768" y="526" fill="#f3a05b">─</text><text x="776" y="526" fill="#f3a05b">─</text><text x="784" y="526" fill="#f3a05b">─</text><text x="792" y="526" fill="#f3a05b">─</text><text x="800" y="526" fill="#f3a05b">─</text><text x="808" y="526" fill="#f3a05b">─</text><text x="16" y="544" fill="#f3a05b">C</text><text x="24" y="544" fill="#f3a05b">t</text><text x="32" y="544" fill="#f3a05b">r</text><text x="40" y="544" fill="#f3a05b">l</text><text x="48" y="544" fill="#f3a05b">+</text><text x="56" y="544" fill="#f3a05b">G</text><text x="72" y="544" fill="#f3a05b">c</text><text x="80" y="544" fill="#f3a05b">h</text><text x="88" y="544" fill="#f3a05b">a</text><text x="96" y="544" fill="#f3a05b">t</text><text x="112" y="544" fill="#f3a05b">·</text><text x="128" y="544" fill="#f3a05b">E</text><text x="136" y="544" fill="#f3a05b">n</text><text x="144" y="544" fill="#f3a05b">t</text><text x="152" y="544" fill="#f3a05b">e</text><text x="160" y="544" fill="#f3a05b">r</text><text x="176" y="544" fill="#f3a05b">i</text><text x="184" y="544" fill="#f3a05b">n</text><text x="192" y="544" fill="#f3a05b">s</text><text x="200" y="544" fill="#f3a05b">p</text><text x="208" y="544" fill="#f3a05b">e</text><text x="216" y="544" fill="#f3a05b">c</text><text x="224" y="544" fill="#f3a05b">t</text><text x="240" y="544" fill="#f3a05b">·</text><text x="256" y="544" fill="#f3a05b">↑</text><text x="264" y="544" fill="#f3a05b">↓</text><text x="280" y="544" fill="#f3a05b">r</text><text x="288" y="544" fill="#f3a05b">o</text><text x="296" y="544" fill="#f3a05b">l</text><text x="304" y="544" fill="#f3a05b">e</text><text x="312" y="544" fill="#f3a05b">s</text><text x="328" y="544" fill="#f3a05b">·</text><text x="344" y="544" fill="#f3a05b">C</text><text x="352" y="544" fill="#f3a05b">t</text><text x="360" y="544" fill="#f3a05b">r</text><text x="368" y="544" fill="#f3a05b">l</text><text x="376" y="544" fill="#f3a05b">+</text><text x="384" y="544" fill="#f3a05b">T</text><text x="400" y="544" fill="#f3a05b">e</text><text x="408" y="544" fill="#f3a05b">x</text><text x="416" y="544" fill="#f3a05b">e</text><text x="424" y="544" fill="#f3a05b">c</text><text x="432" y="544" fill="#f3a05b">u</text><text x="440" y="544" fill="#f3a05b">t</text><text x="448" y="544" fill="#f3a05b">i</text><text x="456" y="544" fill="#f3a05b">o</text><text x="464" y="544" fill="#f3a05b">n</text><text x="472" y="544" fill="#f3a05b">s</text></g></svg>