<svg xmlns="http://www.w3.org/2000/svg" width="760" height="170" viewBox="0 0 760 170" role="img" aria-labelledby="title description">
  <title id="title">Welcome to Recurs</title>
  <desc id="description">The Recurs loop mark beside a terminal welcome message.</desc>
  <!-- Generated by scripts/generate-recurs-brand.mjs. Do not edit. -->
  <defs>
    <linearGradient id="recurs-gradient" x1="0" y1="0" x2="1" y2="1">
      <stop offset="0" stop-color="#4285f4"/>
      <stop offset="0.5" stop-color="#3ddbd9"/>
      <stop offset="1" stop-color="#b7f34a"/>
    </linearGradient>
    <style>
      .muted { fill: #8e98a8; font: 16px ui-monospace, SFMono-Regular, Menlo, Consolas, monospace; }
      .strong { fill: #f4f7fb; font: 800 29px ui-monospace, SFMono-Regular, Menlo, Consolas, monospace; }
    </style>
  </defs>
  <rect width="760" height="170" rx="16" fill="#0b1016"/>
  <g transform="translate(28 13) scale(0.9)">
    <g fill="none" stroke="url(#recurs-gradient)" stroke-linecap="round" stroke-linejoin="round">
      <path d="M 122 73 L 136 59 C 145 41 138 18 114 18 H 47 C 17 18 17 63 47 63 H 70 C 84 63 94 70 104 81 L 137 123" stroke-width="21"/>
      <path d="M 99 88 L 77 110 C 64 124 43 124 29 110" stroke-width="21"/>
    </g>
    <polygon points="5,104 31,83 48,83 48,108 31,108 31,127" fill="url(#recurs-gradient)"/>
  </g>
  <text x="190" y="76" class="strong">Welcome to Recurs</text>
  <text x="190" y="111" class="muted">A bounded agent company for your terminal.</text>
</svg>
