<svg xmlns="http://www.w3.org/2000/svg" width="832" height="572" viewBox="0 0 832 572" role="img" aria-label="Recurs terminal: light"><rect width="832" height="572" rx="10" fill="#ffffff"/><g shape-rendering="crispEdges"><rect x="16" y="14" width="800" height="18" fill="#ffffff"/><rect x="16" y="32" width="800" height="18" fill="#ffffff"/><rect x="16" y="50" width="800" height="18" fill="#ffffff"/><rect x="16" y="68" width="800" height="18" fill="#ffffff"/><rect x="16" y="86" width="800" height="18" fill="#ffffff"/><rect x="16" y="104" width="800" height="18" fill="#ffffff"/><rect x="16" y="122" width="800" height="18" fill="#ffffff"/><rect x="16" y="140" width="800" height="18" fill="#ffffff"/><rect x="16" y="158" width="800" height="18" fill="#ffffff"/><rect x="16" y="176" width="800" height="18" fill="#ffffff"/><rect x="16" y="194" width="800" height="18" fill="#ffffff"/><rect x="16" y="212" width="800" height="18" fill="#ffffff"/><rect x="16" y="230" width="800" height="18" fill="#ffffff"/><rect x="16" y="248" width="800" height="18" fill="#ffffff"/><rect x="16" y="266" width="800" height="18" fill="#ffffff"/><rect x="16" y="284" width="800" height="18" fill="#ffffff"/><rect x="16" y="302" width="800" height="18" fill="#ffffff"/><rect x="16" y="320" width="800" height="18" fill="#ffffff"/><rect x="16" y="338" width="800" height="18" fill="#ffffff"/><rect x="16" y="356" width="800" height="18" fill="#ffffff"/><rect x="16" y="374" width="800" height="18" fill="#ffffff"/><rect x="16" y="392" width="800" height="18" fill="#ffffff"/><rect x="16" y="410" width="800" height="18" fill="#ffffff"/><rect x="16" y="428" width="800" height="18" fill="#ffffff"/><rect x="16" y="446" width="800" height="18" fill="#ffffff"/><rect x="16" y="464" width="800" height="18" fill="#ffffff"/><rect x="16" y="482" width="800" height="18" fill="#ffffff"/><rect x="16" y="500" width="800" height="18" fill="#ffffff"/><rect x="16" y="518" width="800" height="18" fill="#ffffff"/><rect x="16" y="536" width="800" height="18" fill="#ffffff"/></g><g font-family="monospace" font-size="13"><text x="24" y="28" fill="#075985">R</text><text x="32" y="28" fill="#075985">E</text><text x="40" y="28" fill="#075985">C</text><text x="48" y="28" fill="#075985">U</text><text x="56" y="28" fill="#075985">R</text><text x="64" y="28" fill="#075985">S</text><text x="80" y="28" fill="#075985">/</text><text x="96" y="28" fill="#075985">P</text><text x="104" y="28" fill="#075985">A</text><text x="112" y="28" fill="#075985">R</text><text x="120" y="28" fill="#075985">S</text><text x="128" y="28" fill="#075985">E</text><text x="136" y="28" fill="#075985">R</text><text x="144" y="28" fill="#075985">-</text><text x="152" y="28" fill="#075985">P</text><text x="160" y="28" fill="#075985">R</text><text x="168" y="28" fill="#075985">O</text><text x="176" y="28" fill="#075985">J</text><text x="184" y="28" fill="#075985">E</text><text x="192" y="28" fill="#075985">C</text><text x="200" y="28" fill="#075985">T</text><text x="216" y="28" fill="#075985">/</text><text x="232" y="28" fill="#075985">C</text><text x="240" y="28" fill="#075985">H</text><text x="248" y="28" fill="#075985">A</text><text x="256" y="28" fill="#075985">T</text><text x="24" y="46" fill="#075985">╰</text><text x="32" y="46" fill="#075985">▟</text><text x="40" y="46" fill="#075985">█</text><text x="48" y="46" fill="#075985">▙</text><text x="56" y="46" fill="#075985">╯</text><text x="72" y="46" fill="#172033" font-weight="bold">P</text><text x="80" y="46" fill="#172033" font-weight="bold">a</text><text x="88" y="46" fill="#172033" font-weight="bold">r</text><text x="96" y="46" fill="#172033" font-weight="bold">e</text><text x="104" y="46" fill="#172033" font-weight="bold">n</text><text x="112" y="46" fill="#172033" font-weight="bold">t</text><text x="128" y="46" fill="#172033">·</text><text x="144" y="46" fill="#172033">r</text><text x="152" y="46" fill="#172033">e</text><text x="160" y="46" fill="#172033">a</text><text x="168" y="46" fill="#172033">d</text><text x="176" y="46" fill="#172033">y</text><text x="24" y="64" fill="#475569">t</text><text x="32" y="64" fill="#475569">e</text><text x="40" y="64" fill="#475569">r</text><text x="48" y="64" fill="#475569">m</text><text x="56" y="64" fill="#475569">i</text><text x="64" y="64" fill="#475569">n</text><text x="72" y="64" fill="#475569">a</text><text x="80" y="64" fill="#475569">l</text><text x="88" y="64" fill="#475569">-</text><text x="96" y="64" fill="#475569">f</text><text x="104" y="64" fill="#475569">i</text><text x="112" y="64" fill="#475569">x</text><text x="120" y="64" fill="#475569">t</text><text x="128" y="64" fill="#475569">u</text><text x="136" y="64" fill="#475569">r</text><text x="144" y="64" fill="#475569">e</text><text x="160" y="64" fill="#475569">·</text><text x="176" y="64" fill="#475569">B</text><text x="184" y="64" fill="#475569">a</text><text x="192" y="64" fill="#475569">l</text><text x="200" y="64" fill="#475569">a</text><text x="208" y="64" fill="#475569">n</text><text x="216" y="64" fill="#475569">c</text><text x="224" y="64" fill="#475569">e</text><text x="232" y="64" fill="#475569">d</text><text x="248" y="64" fill="#475569">·</text><text x="264" y="64" fill="#475569">A</text><text x="272" y="64" fill="#475569">s</text><text x="280" y="64" fill="#475569">k</text><text x="296" y="64" fill="#475569">A</text><text x="304" y="64" fill="#475569">l</text><text x="312" y="64" fill="#475569">w</text><text x="320" y="64" fill="#475569">a</text><text x="328" y="64" fill="#475569">y</text><text x="336" y="64" fill="#475569">s</text><text x="24" y="82" fill="#475569">L</text><text x="32" y="82" fill="#475569">o</text><text x="40" y="82" fill="#475569">c</text><text x="48" y="82" fill="#475569">a</text><text x="56" y="82" fill="#475569">l</text><text x="72" y="82" fill="#475569">w</text><text x="80" y="82" fill="#475569">o</text><text x="88" y="82" fill="#475569">r</text><text x="96" y="82" fill="#475569">k</text><text x="104" y="82" fill="#475569">s</text><text x="112" y="82" fill="#475569">p</text><text x="120" y="82" fill="#475569">a</text><text x="128" y="82" fill="#475569">c</text><text x="136" y="82" fill="#475569">e</text><text x="152" y="82" fill="#475569">·</text><text x="168" y="82" fill="#475569">/</text><text x="176" y="82" fill="#475569">w</text><text x="184" y="82" fill="#475569">o</text><text x="192" y="82" fill="#475569">r</text><text x="200" y="82" fill="#475569">k</text><text x="208" y="82" fill="#475569">s</text><text x="216" y="82" fill="#475569">p</text><text x="224" y="82" fill="#475569">a</text><text x="232" y="82" fill="#475569">c</text><text x="240" y="82" fill="#475569">e</text><text x="256" y="82" fill="#475569">d</text><text x="264" y="82" fill="#475569">e</text><text x="272" y="82" fill="#475569">t</text><text x="280" y="82" fill="#475569">a</text><text x="288" y="82" fill="#475569">i</text><text x="296" y="82" fill="#475569">l</text><text x="304" y="82" fill="#475569">s</text><text x="24" y="118" fill="#172033">›</text><text x="40" y="118" fill="#172033">R</text><text x="48" y="118" fill="#172033">e</text><text x="56" y="118" fill="#172033">v</text><text x="64" y="118" fill="#172033">i</text><text x="72" y="118" fill="#172033">e</text><text x="80" y="118" fill="#172033">w</text><text x="96" y="118" fill="#172033">p</text><text x="104" y="118" fill="#172033">a</text><text x="112" y="118" fill="#172033">r</text><text x="120" y="118" fill="#172033">s</text><text x="128" y="118" fill="#172033">e</text><text x="136" y="118" fill="#172033">r</text><text x="144" y="118" fill="#172033">.</text><text x="152" y="118" fill="#172033">t</text><text x="160" y="118" fill="#172033">s</text><text x="24" y="154" fill="#075985" font-weight="bold">P</text><text x="32" y="154" fill="#075985" font-weight="bold">a</text><text x="40" y="154" fill="#075985" font-weight="bold">r</text><text x="48" y="154" fill="#075985" font-weight="bold">s</text><text x="56" y="154" fill="#075985" font-weight="bold">e</text><text x="64" y="154" fill="#075985" font-weight="bold">r</text><text x="80" y="154" fill="#075985" font-weight="bold">r</text><text x="88" y="154" fill="#075985" font-weight="bold">e</text><text x="96" y="154" fill="#075985" font-weight="bold">v</text><text x="104" y="154" fill="#075985" font-weight="bold">i</text><text x="112" y="154" fill="#075985" font-weight="bold">e</text><text x="120" y="154" fill="#075985" font-weight="bold">w</text><text x="24" y="190" fill="#172033">T</text><text x="32" y="190" fill="#172033">h</text><text x="40" y="190" fill="#172033">e</text><text x="56" y="190" fill="#172033">p</text><text x="64" y="190" fill="#172033">a</text><text x="72" y="190" fill="#172033">r</text><text x="80" y="190" fill="#172033">s</text><text x="88" y="190" fill="#172033">e</text><text x="96" y="190" fill="#172033">r</text><text x="112" y="190" fill="#172033">t</text><text x="120" y="190" fill="#172033">r</text><text x="128" y="190" fill="#172033">i</text><text x="136" y="190" fill="#172033">m</text><text x="144" y="190" fill="#172033">s</text><text x="160" y="190" fill="#172033">w</text><text x="168" y="190" fill="#172033">h</text><text x="176" y="190" fill="#172033">i</text><text x="184" y="190" fill="#172033">t</text><text x="192" y="190" fill="#172033">e</text><text x="200" y="190" fill="#172033">s</text><text x="208" y="190" fill="#172033">p</text><text x="216" y="190" fill="#172033">a</text><text x="224" y="190" fill="#172033">c</text><text x="232" y="190" fill="#172033">e</text><text x="240" y="190" fill="#172033">.</text><text x="256" y="190" fill="#172033">A</text><text x="264" y="190" fill="#172033">d</text><text x="272" y="190" fill="#172033">d</text><text x="288" y="190" fill="#172033">c</text><text x="296" y="190" fill="#172033">a</text><text x="304" y="190" fill="#172033">s</text><text x="312" y="190" fill="#172033">e</text><text x="320" y="190" fill="#172033">s</text><text x="336" y="190" fill="#172033">f</text><text x="344" y="190" fill="#172033">o</text><text x="352" y="190" fill="#172033">r</text><text x="368" y="190" fill="#172033">e</text><text x="376" y="190" fill="#172033">m</text><text x="384" y="190" fill="#172033">p</text><text x="392" y="190" fill="#172033">t</text><text x="400" y="190" fill="#172033">y</text><text x="416" y="190" fill="#172033">i</text><text x="424" y="190" fill="#172033">n</text><text x="432" y="190" fill="#172033">p</text><text x="440" y="190" fill="#172033">u</text><text x="448" y="190" fill="#172033">t</text><text x="464" y="190" fill="#172033">a</text><text x="472" y="190" fill="#172033">n</text><text x="480" y="190" fill="#172033">d</text><text x="496" y="190" fill="#172033">s</text><text x="504" y="190" fill="#172033">u</text><text x="512" y="190" fill="#172033">r</text><text x="520" y="190" fill="#172033">r</text><text x="528" y="190" fill="#172033">o</text><text x="536" y="190" fill="#172033">u</text><text x="544" y="190" fill="#172033">n</text><text x="552" y="190" fill="#172033">d</text><text x="560" y="190" fill="#172033">i</text><text x="568" y="190" fill="#172033">n</text><text x="576" y="190" fill="#172033">g</text><text x="592" y="190" fill="#172033">s</text><text x="600" y="190" fill="#172033">p</text><text x="608" y="190" fill="#172033">a</text><text x="616" y="190" fill="#172033">c</text><text x="624" y="190" fill="#172033">e</text><text x="632" y="190" fill="#172033">s</text><text x="640" y="190" fill="#172033">.</text><text x="24" y="226" fill="#475569">`</text><text x="32" y="226" fill="#475569">`</text><text x="40" y="226" fill="#475569">`</text><text x="48" y="226" fill="#475569">t</text><text x="56" y="226" fill="#475569">s</text><text x="40" y="244" fill="#6b21a8">e</text><text x="48" y="244" fill="#6b21a8">x</text><text x="56" y="244" fill="#6b21a8">p</text><text x="64" y="244" fill="#6b21a8">e</text><text x="72" y="244" fill="#6b21a8">c</text><text x="80" y="244" fill="#6b21a8">t</text><text x="88" y="244" fill="#6b21a8">(</text><text x="96" y="244" fill="#6b21a8">p</text><text x="104" y="244" fill="#6b21a8">a</text><text x="112" y="244" fill="#6b21a8">r</text><text x="120" y="244" fill="#6b21a8">s</text><text x="128" y="244" fill="#6b21a8">e</text><text x="136" y="244" fill="#6b21a8">(</text><text x="144" y="244" fill="#166534">'</text><text x="168" y="244" fill="#166534">h</text><text x="176" y="244" fill="#166534">e</text><text x="184" y="244" fill="#166534">l</text><text x="192" y="244" fill="#166534">l</text><text x="200" y="244" fill="#166534">o</text><text x="224" y="244" fill="#166534">'</text><text x="232" y="244" fill="#6b21a8">)</text><text x="240" y="244" fill="#6b21a8">)</text><text x="248" y="244" fill="#6b21a8">.</text><text x="256" y="244" fill="#6b21a8">t</text><text x="264" y="244" fill="#6b21a8">o</text><text x="272" y="244" fill="#6b21a8">B</text><text x="280" y="244" fill="#6b21a8">e</text><text x="288" y="244" fill="#6b21a8">(</text><text x="296" y="244" fill="#166534">'</text><text x="304" y="244" fill="#166534">h</text><text x="312" y="244" fill="#166534">e</text><text x="320" y="244" fill="#166534">l</text><text x="328" y="244" fill="#166534">l</text><text x="336" y="244" fill="#166534">o</text><text x="344" y="244" fill="#166534">'</text><text x="352" y="244" fill="#6b21a8">)</text><text x="360" y="244" fill="#6b21a8">;</text><text x="40" y="262" fill="#6b21a8">e</text><text x="48" y="262" fill="#6b21a8">x</text><text x="56" y="262" fill="#6b21a8">p</text><text x="64" y="262" fill="#6b21a8">e</text><text x="72" y="262" fill="#6b21a8">c</text><text x="80" y="262" fill="#6b21a8">t</text><text x="88" y="262" fill="#6b21a8">(</text><text x="96" y="262" fill="#6b21a8">p</text><text x="104" y="262" fill="#6b21a8">a</text><text x="112" y="262" fill="#6b21a8">r</text><text x="120" y="262" fill="#6b21a8">s</text><text x="128" y="262" fill="#6b21a8">e</text><text x="136" y="262" fill="#6b21a8">(</text><text x="144" y="262" fill="#166534">'</text><text x="176" y="262" fill="#166534">'</text><text x="184" y="262" fill="#6b21a8">)</text><text x="192" y="262" fill="#6b21a8">)</text><text x="200" y="262" fill="#6b21a8">.</text><text x="208" y="262" fill="#6b21a8">t</text><text x="216" y="262" fill="#6b21a8">o</text><text x="224" y="262" fill="#6b21a8">B</text><text x="232" y="262" fill="#6b21a8">e</text><text x="240" y="262" fill="#6b21a8">(</text><text x="248" y="262" fill="#166534">'</text><text x="256" y="262" fill="#166534">'</text><text x="264" y="262" fill="#6b21a8">)</text><text x="272" y="262" fill="#6b21a8">;</text><text x="24" y="280" fill="#475569">`</text><text x="32" y="280" fill="#475569">`</text><text x="40" y="280" fill="#475569">`</text><text x="24" y="316" fill="#172033">T</text><text x="32" y="316" fill="#172033">e</text><text x="40" y="316" fill="#172033">r</text><text x="48" y="316" fill="#172033">m</text><text x="56" y="316" fill="#172033">i</text><text x="64" y="316" fill="#172033">n</text><text x="72" y="316" fill="#172033">a</text><text x="80" y="316" fill="#172033">l</text><text x="96" y="316" fill="#172033">f</text><text x="104" y="316" fill="#172033">i</text><text x="112" y="316" fill="#172033">x</text><text x="120" y="316" fill="#172033">t</text><text x="128" y="316" fill="#172033">u</text><text x="136" y="316" fill="#172033">r</text><text x="144" y="316" fill="#172033">e</text><text x="160" y="316" fill="#172033">c</text><text x="168" y="316" fill="#172033">o</text><text x="176" y="316" fill="#172033">m</text><text x="184" y="316" fill="#172033">p</text><text x="192" y="316" fill="#172033">l</text><text x="200" y="316" fill="#172033">e</text><text x="208" y="316" fill="#172033">t</text><text x="216" y="316" fill="#172033">e</text><text x="224" y="316" fill="#172033">.</text><text x="16" y="478" fill="#075985">·</text><text x="32" y="478" fill="#075985">C</text><text x="40" y="478" fill="#075985">o</text><text x="48" y="478" fill="#075985">m</text><text x="56" y="478" fill="#075985">p</text><text x="64" y="478" fill="#075985">l</text><text x="72" y="478" fill="#075985">e</text><text x="80" y="478" fill="#075985">t</text><text x="88" y="478" fill="#075985">e</text><text x="96" y="478" fill="#075985">d</text><text x="112" y="478" fill="#075985">·</text><text x="128" y="478" fill="#075985">0</text><text x="136" y="478" fill="#075985">s</text><text x="16" y="496" fill="#075985">─</text><text x="24" y="496" fill="#075985">─</text><text x="32" y="496" fill="#075985">─</text><text x="40" y="496" fill="#075985">─</text><text x="48" y="496" fill="#075985">─</text><text x="56" y="496" fill="#075985">─</text><text x="64" y="496" fill="#075985">─</text><text x="72" y="496" fill="#075985">─</text><text x="80" y="496" fill="#075985">─</text><text x="88" y="496" fill="#075985">─</text><text x="96" y="496" fill="#075985">─</text><text x="104" y="496" fill="#075985">─</text><text x="112" y="496" fill="#075985">─</text><text x="120" y="496" fill="#075985">─</text><text x="128" y="496" fill="#075985">─</text><text x="136" y="496" fill="#075985">─</text><text x="144" y="496" fill="#075985">─</text><text x="152" y="496" fill="#075985">─</text><text x="160" y="496" fill="#075985">─</text><text x="168" y="496" fill="#075985">─</text><text x="176" y="496" fill="#075985">─</text><text x="184" y="496" fill="#075985">─</text><text x="192" y="496" fill="#075985">─</text><text x="200" y="496" fill="#075985">─</text><text x="208" y="496" fill="#075985">─</text><text x="216" y="496" fill="#075985">─</text><text x="224" y="496" fill="#075985">─</text><text x="232" y="496" fill="#075985">─</text><text x="240" y="496" fill="#075985">─</text><text x="248" y="496" fill="#075985">─</text><text x="256" y="496" fill="#075985">─</text><text x="264" y="496" fill="#075985">─</text><text x="272" y="496" fill="#075985">─</text><text x="280" y="496" fill="#075985">─</text><text x="288" y="496" fill="#075985">─</text><text x="296" y="496" fill="#075985">─</text><text x="304" y="496" fill="#075985">─</text><text x="312" y="496" fill="#075985">─</text><text x="320" y="496" fill="#075985">─</text><text x="328" y="496" fill="#075985">─</text><text x="336" y="496" fill="#075985">─</text><text x="344" y="496" fill="#075985">─</text><text x="352" y="496" fill="#075985">─</text><text x="360" y="496" fill="#075985">─</text><text x="368" y="496" fill="#075985">─</text><text x="376" y="496" fill="#075985">─</text><text x="384" y="496" fill="#075985">─</text><text x="392" y="496" fill="#075985">─</text><text x="400" y="496" fill="#075985">─</text><text x="408" y="496" fill="#075985">─</text><text x="416" y="496" fill="#075985">─</text><text x="424" y="496" fill="#075985">─</text><text x="432" y="496" fill="#075985">─</text><text x="440" y="496" fill="#075985">─</text><text x="448" y="496" fill="#075985">─</text><text x="456" y="496" fill="#075985">─</text><text x="464" y="496" fill="#075985">─</text><text x="472" y="496" fill="#075985">─</text><text x="480" y="496" fill="#075985">─</text><text x="488" y="496" fill="#075985">─</text><text x="496" y="496" fill="#075985">─</text><text x="504" y="496" fill="#075985">─</text><text x="512" y="496" fill="#075985">─</text><text x="520" y="496" fill="#075985">─</text><text x="528" y="496" fill="#075985">─</text><text x="536" y="496" fill="#075985">─</text><text x="544" y="496" fill="#075985">─</text><text x="552" y="496" fill="#075985">─</text><text x="560" y="496" fill="#075985">─</text><text x="568" y="496" fill="#075985">─</text><text x="576" y="496" fill="#075985">─</text><text x="584" y="496" fill="#075985">─</text><text x="592" y="496" fill="#075985">─</text><text x="600" y="496" fill="#075985">─</text><text x="608" y="496" fill="#075985">─</text><text x="616" y="496" fill="#075985">─</text><text x="624" y="496" fill="#075985">─</text><text x="632" y="496" fill="#075985">─</text><text x="640" y="496" fill="#075985">─</text><text x="648" y="496" fill="#075985">─</text><text x="656" y="496" fill="#075985">─</text><text x="664" y="496" fill="#075985">─</text><text x="672" y="496" fill="#075985">─</text><text x="680" y="496" fill="#075985">─</text><text x="688" y="496" fill="#075985">─</text><text x="696" y="496" fill="#075985">─</text><text x="704" y="496" fill="#075985">─</text><text x="712" y="496" fill="#075985">─</text><text x="720" y="496" fill="#075985">─</text><text x="728" y="496" fill="#075985">─</text><text x="736" y="496" fill="#075985">─</text><text x="744" y="496" fill="#075985">─</text><text x="752" y="496" fill="#075985">─</text><text x="760" y="496" fill="#075985">─</text><text x="768" y="496" fill="#075985">─</text><text x="776" y="496" fill="#075985">─</text><text x="784" y="496" fill="#075985">─</text><text x="792" y="496" fill="#075985">─</text><text x="800" y="496" fill="#075985">─</text><text x="808" y="496" fill="#075985">─</text><text x="16" y="532" fill="#075985">─</text><text x="24" y="532" fill="#075985">─</text><text x="32" y="532" fill="#075985">─</text><text x="40" y="532" fill="#075985">─</text><text x="48" y="532" fill="#075985">─</text><text x="56" y="532" fill="#075985">─</text><text x="64" y="532" fill="#075985">─</text><text x="72" y="532" fill="#075985">─</text><text x="80" y="532" fill="#075985">─</text><text x="88" y="532" fill="#075985">─</text><text x="96" y="532" fill="#075985">─</text><text x="104" y="532" fill="#075985">─</text><text x="112" y="532" fill="#075985">─</text><text x="120" y="532" fill="#075985">─</text><text x="128" y="532" fill="#075985">─</text><text x="136" y="532" fill="#075985">─</text><text x="144" y="532" fill="#075985">─</text><text x="152" y="532" fill="#075985">─</text><text x="160" y="532" fill="#075985">─</text><text x="168" y="532" fill="#075985">─</text><text x="176" y="532" fill="#075985">─</text><text x="184" y="532" fill="#075985">─</text><text x="192" y="532" fill="#075985">─</text><text x="200" y="532" fill="#075985">─</text><text x="208" y="532" fill="#075985">─</text><text x="216" y="532" fill="#075985">─</text><text x="224" y="532" fill="#075985">─</text><text x="232" y="532" fill="#075985">─</text><text x="240" y="532" fill="#075985">─</text><text x="248" y="532" fill="#075985">─</text><text x="256" y="532" fill="#075985">─</text><text x="264" y="532" fill="#075985">─</text><text x="272" y="532" fill="#075985">─</text><text x="280" y="532" fill="#075985">─</text><text x="288" y="532" fill="#075985">─</text><text x="296" y="532" fill="#075985">─</text><text x="304" y="532" fill="#075985">─</text><text x="312" y="532" fill="#075985">─</text><text x="320" y="532" fill="#075985">─</text><text x="328" y="532" fill="#075985">─</text><text x="336" y="532" fill="#075985">─</text><text x="344" y="532" fill="#075985">─</text><text x="352" y="532" fill="#075985">─</text><text x="360" y="532" fill="#075985">─</text><text x="368" y="532" fill="#075985">─</text><text x="376" y="532" fill="#075985">─</text><text x="384" y="532" fill="#075985">─</text><text x="392" y="532" fill="#075985">─</text><text x="400" y="532" fill="#075985">─</text><text x="408" y="532" fill="#075985">─</text><text x="416" y="532" fill="#075985">─</text><text x="424" y="532" fill="#075985">─</text><text x="432" y="532" fill="#075985">─</text><text x="440" y="532" fill="#075985">─</text><text x="448" y="532" fill="#075985">─</text><text x="456" y="532" fill="#075985">─</text><text x="464" y="532" fill="#075985">─</text><text x="472" y="532" fill="#075985">─</text><text x="480" y="532" fill="#075985">─</text><text x="488" y="532" fill="#075985">─</text><text x="496" y="532" fill="#075985">─</text><text x="504" y="532" fill="#075985">─</text><text x="512" y="532" fill="#075985">─</text><text x="520" y="532" fill="#075985">─</text><text x="528" y="532" fill="#075985">─</text><text x="536" y="532" fill="#075985">─</text><text x="544" y="532" fill="#075985">─</text><text x="552" y="532" fill="#075985">─</text><text x="560" y="532" fill="#075985">─</text><text x="568" y="532" fill="#075985">─</text><text x="576" y="532" fill="#075985">─</text><text x="584" y="532" fill="#075985">─</text><text x="592" y="532" fill="#075985">─</text><text x="600" y="532" fill="#075985">─</text><text x="608" y="532" fill="#075985">─</text><text x="616" y="532" fill="#075985">─</text><text x="624" y="532" fill="#075985">─</text><text x="632" y="532" fill="#075985">─</text><text x="640" y="532" fill="#075985">─</text><text x="648" y="532" fill="#075985">─</text><text x="656" y="532" fill="#075985">─</text><text x="664" y="532" fill="#075985">─</text><text x="672" y="532" fill="#075985">─</text><text x="680" y="532" fill="#075985">─</text><text x="688" y="532" fill="#075985">─</text><text x="696" y="532" fill="#075985">─</text><text x="704" y="532" fill="#075985">─</text><text x="712" y="532" fill="#075985">─</text><text x="720" y="532" fill="#075985">─</text><text x="728" y="532" fill="#075985">─</text><text x="736" y="532" fill="#075985">─</text><text x="744" y="532" fill="#075985">─</text><text x="752" y="532" fill="#075985">─</text><text x="760" y="532" fill="#075985">─</text><text x="768" y="532" fill="#075985">─</text><text x="776" y="532" fill="#075985">─</text><text x="784" y="532" fill="#075985">─</text><text x="792" y="532" fill="#075985">─</text><text x="800" y="532" fill="#075985">─</text><text x="808" y="532" fill="#075985">─</text><text x="24" y="550" fill="#475569">E</text><text x="32" y="550" fill="#475569">n</text><text x="40" y="550" fill="#475569">t</text><text x="48" y="550" fill="#475569">e</text><text x="56" y="550" fill="#475569">r</text><text x="72" y="550" fill="#475569">s</text><text x="80" y="550" fill="#475569">e</text><text x="88" y="550" fill="#475569">n</text><text x="96" y="550" fill="#475569">d</text><text x="112" y="550" fill="#475569">·</text><text x="128" y="550" fill="#475569">C</text><text x="136" y="550" fill="#475569">t</text><text x="144" y="550" fill="#475569">r</text><text x="152" y="550" fill="#475569">l</text><text x="160" y="550" fill="#475569">+</text><text x="168" y="550" fill="#475569">G</text><text x="184" y="550" fill="#475569">t</text><text x="192" y="550" fill="#475569">e</text><text x="200" y="550" fill="#475569">a</text><text x="208" y="550" fill="#475569">m</text><text x="224" y="550" fill="#475569">·</text><text x="240" y="550" fill="#475569">C</text><text x="248" y="550" fill="#475569">t</text><text x="256" y="550" fill="#475569">r</text><text x="264" y="550" fill="#475569">l</text><text x="272" y="550" fill="#475569">+</text><text x="280" y="550" fill="#475569">T</text><text x="296" y="550" fill="#475569">t</text><text x="304" y="550" fill="#475569">a</text><text x="312" y="550" fill="#475569">s</text><text x="320" y="550" fill="#475569">k</text><text x="328" y="550" fill="#475569">s</text><text x="344" y="550" fill="#475569">·</text><text x="360" y="550" fill="#475569">F</text><text x="368" y="550" fill="#475569">2</text><text x="384" y="550" fill="#475569">c</text><text x="392" y="550" fill="#475569">o</text><text x="400" y="550" fill="#475569">l</text><text x="408" y="550" fill="#475569">o</text><text x="416" y="550" fill="#475569">r</text><text x="424" y="550" fill="#475569">s</text><text x="440" y="550" fill="#475569">·</text><text x="456" y="550" fill="#475569">F</text><text x="464" y="550" fill="#475569">3</text><text x="480" y="550" fill="#475569">p</text><text x="488" y="550" fill="#475569">e</text><text x="496" y="550" fill="#475569">r</text><text x="504" y="550" fill="#475569">m</text><text x="512" y="550" fill="#475569">i</text><text x="520" y="550" fill="#475569">s</text><text x="528" y="550" fill="#475569">s</text><text x="536" y="550" fill="#475569">i</text><text x="544" y="550" fill="#475569">o</text><text x="552" y="550" fill="#475569">n</text><text x="560" y="550" fill="#475569">s</text><text x="576" y="550" fill="#475569">·</text><text x="592" y="550" fill="#475569">F</text><text x="600" y="550" fill="#475569">4</text><text x="616" y="550" fill="#475569">t</text><text x="624" y="550" fill="#475569">h</text><text x="632" y="550" fill="#475569">i</text><text x="640" y="550" fill="#475569">n</text><text x="648" y="550" fill="#475569">k</text><text x="656" y="550" fill="#475569">i</text><text x="664" y="550" fill="#475569">n</text><text x="672" y="550" fill="#475569">g</text><text x="688" y="550" fill="#475569">·</text><text x="704" y="550" fill="#475569">E</text><text x="712" y="550" fill="#475569">s</text><text x="720" y="550" fill="#475569">c</text><text x="736" y="550" fill="#475569">h</text><text x="744" y="550" fill="#475569">o</text><text x="752" y="550" fill="#475569">m</text><text x="760" y="550" fill="#475569">e</text></g></svg>