<svg xmlns="http://www.w3.org/2000/svg" width="832" height="320" viewBox="0 0 832 320" role="img" aria-label="Recurs terminal: diff"><rect width="832" height="320" rx="10" fill="#191714"/><g shape-rendering="crispEdges"><rect x="16" y="14" width="800" height="18" fill="#191714"/><rect x="16" y="32" width="800" height="18" fill="#191714"/><rect x="16" y="50" width="800" height="18" fill="#191714"/><rect x="16" y="68" width="800" height="18" fill="#191714"/><rect x="16" y="86" width="800" height="18" fill="#191714"/><rect x="16" y="104" width="800" height="18" fill="#191714"/><rect x="16" y="122" width="800" height="18" fill="#191714"/><rect x="16" y="140" width="800" height="18" fill="#191714"/><rect x="16" y="158" width="800" height="18" fill="#191714"/><rect x="16" y="176" width="800" height="18" fill="#191714"/><rect x="16" y="194" width="800" height="18" fill="#191714"/><rect x="16" y="212" width="800" height="18" fill="#191714"/><rect x="16" y="230" width="800" height="18" fill="#191714"/><rect x="16" y="248" width="800" height="18" fill="#191714"/><rect x="16" y="266" width="800" height="18" fill="#191714"/><rect x="16" y="284" width="800" height="18" fill="#191714"/></g><g font-family="monospace" font-size="13"><text x="16" y="28" fill="#f3ede5" font-weight="bold">C</text><text x="24" y="28" fill="#f3ede5" font-weight="bold">h</text><text x="32" y="28" fill="#f3ede5" font-weight="bold">a</text><text x="40" y="28" fill="#f3ede5" font-weight="bold">n</text><text x="48" y="28" fill="#f3ede5" font-weight="bold">g</text><text x="56" y="28" fill="#f3ede5" font-weight="bold">e</text><text x="64" y="28" fill="#f3ede5" font-weight="bold">s</text><text x="80" y="28" fill="#f3ede5" font-weight="bold">·</text><text x="96" y="28" fill="#f3ede5" font-weight="bold">U</text><text x="104" y="28" fill="#f3ede5" font-weight="bold">n</text><text x="112" y="28" fill="#f3ede5" font-weight="bold">i</text><text x="120" y="28" fill="#f3ede5" font-weight="bold">f</text><text x="128" y="28" fill="#f3ede5" font-weight="bold">i</text><text x="136" y="28" fill="#f3ede5" font-weight="bold">e</text><text x="144" y="28" fill="#f3ede5" font-weight="bold">d</text><text x="160" y="28" fill="#f3ede5">·</text><text x="176" y="28" fill="#9bd4b0">+</text><text x="184" y="28" fill="#9bd4b0">2</text><text x="200" y="28" fill="#f2a1b3">−</text><text x="208" y="28" fill="#f2a1b3">1</text><text x="16" y="46" fill="#b7ac9e">1</text><text x="32" y="46" fill="#b7ac9e">u</text><text x="40" y="46" fill="#b7ac9e">n</text><text x="48" y="46" fill="#b7ac9e">i</text><text x="56" y="46" fill="#b7ac9e">f</text><text x="64" y="46" fill="#b7ac9e">i</text><text x="72" y="46" fill="#b7ac9e">e</text><text x="80" y="46" fill="#b7ac9e">d</text><text x="96" y="46" fill="#b7ac9e">·</text><text x="112" y="46" fill="#b7ac9e">2</text><text x="128" y="46" fill="#b7ac9e">s</text><text x="136" y="46" fill="#b7ac9e">p</text><text x="144" y="46" fill="#b7ac9e">l</text><text x="152" y="46" fill="#b7ac9e">i</text><text x="160" y="46" fill="#b7ac9e">t</text><text x="176" y="46" fill="#b7ac9e">·</text><text x="192" y="46" fill="#b7ac9e">3</text><text x="208" y="46" fill="#b7ac9e">o</text><text x="216" y="46" fill="#b7ac9e">r</text><text x="224" y="46" fill="#b7ac9e">i</text><text x="232" y="46" fill="#b7ac9e">g</text><text x="240" y="46" fill="#b7ac9e">i</text><text x="248" y="46" fill="#b7ac9e">n</text><text x="256" y="46" fill="#b7ac9e">a</text><text x="264" y="46" fill="#b7ac9e">l</text><text x="280" y="46" fill="#b7ac9e">·</text><text x="296" y="46" fill="#b7ac9e">4</text><text x="312" y="46" fill="#b7ac9e">u</text><text x="320" y="46" fill="#b7ac9e">p</text><text x="328" y="46" fill="#b7ac9e">d</text><text x="336" y="46" fill="#b7ac9e">a</text><text x="344" y="46" fill="#b7ac9e">t</text><text x="352" y="46" fill="#b7ac9e">e</text><text x="360" y="46" fill="#b7ac9e">d</text><text x="16" y="64" fill="#f3a05b">d</text><text x="24" y="64" fill="#f3a05b">i</text><text x="32" y="64" fill="#f3a05b">f</text><text x="40" y="64" fill="#f3a05b">f</text><text x="56" y="64" fill="#f3a05b">-</text><text x="64" y="64" fill="#f3a05b">-</text><text x="72" y="64" fill="#f3a05b">g</text><text x="80" y="64" fill="#f3a05b">i</text><text x="88" y="64" fill="#f3a05b">t</text><text x="104" y="64" fill="#f3a05b">a</text><text x="112" y="64" fill="#f3a05b">/</text><text x="120" y="64" fill="#f3a05b">p</text><text x="128" y="64" fill="#f3a05b">a</text><text x="136" y="64" fill="#f3a05b">r</text><text x="144" y="64" fill="#f3a05b">s</text><text x="152" y="64" fill="#f3a05b">e</text><text x="160" y="64" fill="#f3a05b">r</text><text x="168" y="64" fill="#f3a05b">.</text><text x="176" y="64" fill="#f3a05b">t</text><text x="184" y="64" fill="#f3a05b">s</text><text x="200" y="64" fill="#f3a05b">b</text><text x="208" y="64" fill="#f3a05b">/</text><text x="216" y="64" fill="#f3a05b">p</text><text x="224" y="64" fill="#f3a05b">a</text><text x="232" y="64" fill="#f3a05b">r</text><text x="240" y="64" fill="#f3a05b">s</text><text x="248" y="64" fill="#f3a05b">e</text><text x="256" y="64" fill="#f3a05b">r</text><text x="264" y="64" fill="#f3a05b">.</text><text x="272" y="64" fill="#f3a05b">t</text><text x="280" y="64" fill="#f3a05b">s</text><text x="16" y="82" fill="#e7c29c">i</text><text x="24" y="82" fill="#e7c29c">n</text><text x="32" y="82" fill="#e7c29c">d</text><text x="40" y="82" fill="#e7c29c">e</text><text x="48" y="82" fill="#e7c29c">x</text><text x="64" y="82" fill="#e7c29c">8</text><text x="72" y="82" fill="#e7c29c">7</text><text x="80" y="82" fill="#e7c29c">b</text><text x="88" y="82" fill="#e7c29c">2</text><text x="96" y="82" fill="#e7c29c">2</text><text x="104" y="82" fill="#e7c29c">0</text><text x="112" y="82" fill="#e7c29c">a</text><text x="120" y="82" fill="#e7c29c">.</text><text x="128" y="82" fill="#e7c29c">.</text><text x="136" y="82" fill="#e7c29c">9</text><text x="144" y="82" fill="#e7c29c">0</text><text x="152" y="82" fill="#e7c29c">a</text><text x="160" y="82" fill="#e7c29c">3</text><text x="168" y="82" fill="#e7c29c">7</text><text x="176" y="82" fill="#e7c29c">6</text><text x="184" y="82" fill="#e7c29c">4</text><text x="200" y="82" fill="#e7c29c">1</text><text x="208" y="82" fill="#e7c29c">0</text><text x="216" y="82" fill="#e7c29c">0</text><text x="224" y="82" fill="#e7c29c">6</text><text x="232" y="82" fill="#e7c29c">4</text><text x="240" y="82" fill="#e7c29c">4</text><text x="16" y="100" fill="#f3a05b">-</text><text x="24" y="100" fill="#f3a05b">-</text><text x="32" y="100" fill="#f3a05b">-</text><text x="48" y="100" fill="#f3a05b">a</text><text x="56" y="100" fill="#f3a05b">/</text><text x="64" y="100" fill="#f3a05b">p</text><text x="72" y="100" fill="#f3a05b">a</text><text x="80" y="100" fill="#f3a05b">r</text><text x="88" y="100" fill="#f3a05b">s</text><text x="96" y="100" fill="#f3a05b">e</text><text x="104" y="100" fill="#f3a05b">r</text><text x="112" y="100" fill="#f3a05b">.</text><text x="120" y="100" fill="#f3a05b">t</text><text x="128" y="100" fill="#f3a05b">s</text><text x="16" y="118" fill="#f3a05b">+</text><text x="24" y="118" fill="#f3a05b">+</text><text x="32" y="118" fill="#f3a05b">+</text><text x="48" y="118" fill="#f3a05b">b</text><text x="56" y="118" fill="#f3a05b">/</text><text x="64" y="118" fill="#f3a05b">p</text><text x="72" y="118" fill="#f3a05b">a</text><text x="80" y="118" fill="#f3a05b">r</text><text x="88" y="118" fill="#f3a05b">s</text><text x="96" y="118" fill="#f3a05b">e</text><text x="104" y="118" fill="#f3a05b">r</text><text x="112" y="118" fill="#f3a05b">.</text><text x="120" y="118" fill="#f3a05b">t</text><text x="128" y="118" fill="#f3a05b">s</text><text x="16" y="136" fill="#f3a05b">@</text><text x="24" y="136" fill="#f3a05b">@</text><text x="40" y="136" fill="#f3a05b">-</text><text x="48" y="136" fill="#f3a05b">1</text><text x="64" y="136" fill="#f3a05b">+</text><text x="72" y="136" fill="#f3a05b">1</text><text x="80" y="136" fill="#f3a05b">,</text><text x="88" y="136" fill="#f3a05b">2</text><text x="104" y="136" fill="#f3a05b">@</text><text x="112" y="136" fill="#f3a05b">@</text><text x="40" y="154" fill="#f2a1b3">1</text><text x="96" y="154" fill="#f2a1b3">-</text><text x="112" y="154" fill="#f2a1b3">e</text><text x="120" y="154" fill="#f2a1b3">x</text><text x="128" y="154" fill="#f2a1b3">p</text><text x="136" y="154" fill="#f2a1b3">o</text><text x="144" y="154" fill="#f2a1b3">r</text><text x="152" y="154" fill="#f2a1b3">t</text><text x="168" y="154" fill="#f2a1b3">c</text><text x="176" y="154" fill="#f2a1b3">o</text><text x="184" y="154" fill="#f2a1b3">n</text><text x="192" y="154" fill="#f2a1b3">s</text><text x="200" y="154" fill="#f2a1b3">t</text><text x="216" y="154" fill="#f2a1b3">p</text><text x="224" y="154" fill="#f2a1b3">a</text><text x="232" y="154" fill="#f2a1b3">r</text><text x="240" y="154" fill="#f2a1b3">s</text><text x="248" y="154" fill="#f2a1b3">e</text><text x="264" y="154" fill="#f2a1b3">=</text><text x="280" y="154" fill="#f2a1b3">(</text><text x="288" y="154" fill="#f2a1b3">i</text><text x="296" y="154" fill="#f2a1b3">n</text><text x="304" y="154" fill="#f2a1b3">p</text><text x="312" y="154" fill="#f2a1b3">u</text><text x="320" y="154" fill="#f2a1b3">t</text><text x="328" y="154" fill="#f2a1b3">:</text><text x="344" y="154" fill="#f2a1b3">s</text><text x="352" y="154" fill="#f2a1b3">t</text><text x="360" y="154" fill="#f2a1b3">r</text><text x="368" y="154" fill="#f2a1b3">i</text><text x="376" y="154" fill="#f2a1b3">n</text><text x="384" y="154" fill="#f2a1b3">g</text><text x="392" y="154" fill="#f2a1b3">)</text><text x="408" y="154" fill="#f2a1b3">=</text><text x="416" y="154" fill="#f2a1b3">&gt;</text><text x="432" y="154" fill="#f2a1b3">i</text><text x="440" y="154" fill="#f2a1b3">n</text><text x="448" y="154" fill="#f2a1b3">p</text><text x="456" y="154" fill="#f2a1b3">u</text><text x="464" y="154" fill="#f2a1b3">t</text><text x="472" y="154" fill="#f2a1b3">.</text><text x="480" y="154" fill="#f2a1b3">t</text><text x="488" y="154" fill="#f2a1b3">r</text><text x="496" y="154" fill="#f2a1b3">i</text><text x="504" y="154" fill="#f2a1b3">m</text><text x="512" y="154" fill="#f2a1b3">(</text><text x="520" y="154" fill="#f2a1b3">)</text><text x="528" y="154" fill="#f2a1b3">;</text><text x="80" y="172" fill="#9bd4b0">1</text><text x="96" y="172" fill="#9bd4b0">+</text><text x="112" y="172" fill="#9bd4b0">/</text><text x="120" y="172" fill="#9bd4b0">/</text><text x="136" y="172" fill="#9bd4b0">N</text><text x="144" y="172" fill="#9bd4b0">o</text><text x="152" y="172" fill="#9bd4b0">r</text><text x="160" y="172" fill="#9bd4b0">m</text><text x="168" y="172" fill="#9bd4b0">a</text><text x="176" y="172" fill="#9bd4b0">l</text><text x="184" y="172" fill="#9bd4b0">i</text><text x="192" y="172" fill="#9bd4b0">z</text><text x="200" y="172" fill="#9bd4b0">e</text><text x="216" y="172" fill="#9bd4b0">w</text><text x="224" y="172" fill="#9bd4b0">h</text><text x="232" y="172" fill="#9bd4b0">i</text><text x="240" y="172" fill="#9bd4b0">t</text><text x="248" y="172" fill="#9bd4b0">e</text><text x="256" y="172" fill="#9bd4b0">s</text><text x="264" y="172" fill="#9bd4b0">p</text><text x="272" y="172" fill="#9bd4b0">a</text><text x="280" y="172" fill="#9bd4b0">c</text><text x="288" y="172" fill="#9bd4b0">e</text><text x="304" y="172" fill="#9bd4b0">a</text><text x="312" y="172" fill="#9bd4b0">t</text><text x="328" y="172" fill="#9bd4b0">t</text><text x="336" y="172" fill="#9bd4b0">h</text><text x="344" y="172" fill="#9bd4b0">e</text><text x="360" y="172" fill="#9bd4b0">p</text><text x="368" y="172" fill="#9bd4b0">a</text><text x="376" y="172" fill="#9bd4b0">r</text><text x="384" y="172" fill="#9bd4b0">s</text><text x="392" y="172" fill="#9bd4b0">e</text><text x="400" y="172" fill="#9bd4b0">r</text><text x="416" y="172" fill="#9bd4b0">b</text><text x="424" y="172" fill="#9bd4b0">o</text><text x="432" y="172" fill="#9bd4b0">u</text><text x="440" y="172" fill="#9bd4b0">n</text><text x="448" y="172" fill="#9bd4b0">d</text><text x="456" y="172" fill="#9bd4b0">a</text><text x="464" y="172" fill="#9bd4b0">r</text><text x="472" y="172" fill="#9bd4b0">y</text><text x="480" y="172" fill="#9bd4b0">.</text><text x="80" y="190" fill="#9bd4b0">2</text><text x="96" y="190" fill="#9bd4b0">+</text><text x="112" y="190" fill="#9bd4b0">e</text><text x="120" y="190" fill="#9bd4b0">x</text><text x="128" y="190" fill="#9bd4b0">p</text><text x="136" y="190" fill="#9bd4b0">o</text><text x="144" y="190" fill="#9bd4b0">r</text><text x="152" y="190" fill="#9bd4b0">t</text><text x="168" y="190" fill="#9bd4b0">c</text><text x="176" y="190" fill="#9bd4b0">o</text><text x="184" y="190" fill="#9bd4b0">n</text><text x="192" y="190" fill="#9bd4b0">s</text><text x="200" y="190" fill="#9bd4b0">t</text><text x="216" y="190" fill="#9bd4b0">p</text><text x="224" y="190" fill="#9bd4b0">a</text><text x="232" y="190" fill="#9bd4b0">r</text><text x="240" y="190" fill="#9bd4b0">s</text><text x="248" y="190" fill="#9bd4b0">e</text><text x="264" y="190" fill="#9bd4b0">=</text><text x="280" y="190" fill="#9bd4b0">(</text><text x="288" y="190" fill="#9bd4b0">i</text><text x="296" y="190" fill="#9bd4b0">n</text><text x="304" y="190" fill="#9bd4b0">p</text><text x="312" y="190" fill="#9bd4b0">u</text><text x="320" y="190" fill="#9bd4b0">t</text><text x="328" y="190" fill="#9bd4b0">:</text><text x="344" y="190" fill="#9bd4b0">s</text><text x="352" y="190" fill="#9bd4b0">t</text><text x="360" y="190" fill="#9bd4b0">r</text><text x="368" y="190" fill="#9bd4b0">i</text><text x="376" y="190" fill="#9bd4b0">n</text><text x="384" y="190" fill="#9bd4b0">g</text><text x="392" y="190" fill="#9bd4b0">)</text><text x="400" y="190" fill="#9bd4b0">:</text><text x="416" y="190" fill="#9bd4b0">s</text><text x="424" y="190" fill="#9bd4b0">t</text><text x="432" y="190" fill="#9bd4b0">r</text><text x="440" y="190" fill="#9bd4b0">i</text><text x="448" y="190" fill="#9bd4b0">n</text><text x="456" y="190" fill="#9bd4b0">g</text><text x="472" y="190" fill="#9bd4b0">=</text><text x="480" y="190" fill="#9bd4b0">&gt;</text><text x="496" y="190" fill="#9bd4b0">i</text><text x="504" y="190" fill="#9bd4b0">n</text><text x="512" y="190" fill="#9bd4b0">p</text><text x="520" y="190" fill="#9bd4b0">u</text><text x="528" y="190" fill="#9bd4b0">t</text><text x="536" y="190" fill="#9bd4b0">.</text><text x="544" y="190" fill="#9bd4b0">t</text><text x="552" y="190" fill="#9bd4b0">r</text><text x="560" y="190" fill="#9bd4b0">i</text><text x="568" y="190" fill="#9bd4b0">m</text><text x="576" y="190" fill="#9bd4b0">(</text><text x="584" y="190" fill="#9bd4b0">)</text><text x="592" y="190" fill="#9bd4b0">;</text><text x="16" y="298" fill="#b7ac9e">E</text><text x="24" y="298" fill="#b7ac9e">s</text><text x="32" y="298" fill="#b7ac9e">c</text><text x="48" y="298" fill="#b7ac9e">b</text><text x="56" y="298" fill="#b7ac9e">a</text><text x="64" y="298" fill="#b7ac9e">c</text><text x="72" y="298" fill="#b7ac9e">k</text><text x="88" y="298" fill="#b7ac9e">·</text><text x="104" y="298" fill="#b7ac9e">F</text><text x="120" y="298" fill="#b7ac9e">f</text><text x="128" y="298" fill="#b7ac9e">i</text><text x="136" y="298" fill="#b7ac9e">l</text><text x="144" y="298" fill="#b7ac9e">e</text><text x="152" y="298" fill="#b7ac9e">s</text><text x="168" y="298" fill="#b7ac9e">·</text><text x="184" y="298" fill="#b7ac9e">↑</text><text x="192" y="298" fill="#b7ac9e">↓</text><text x="208" y="298" fill="#b7ac9e">s</text><text x="216" y="298" fill="#b7ac9e">c</text><text x="224" y="298" fill="#b7ac9e">r</text><text x="232" y="298" fill="#b7ac9e">o</text><text x="240" y="298" fill="#b7ac9e">l</text><text x="248" y="298" fill="#b7ac9e">l</text><text x="264" y="298" fill="#b7ac9e">·</text><text x="280" y="298" fill="#b7ac9e">←</text><text x="288" y="298" fill="#b7ac9e">→</text><text x="304" y="298" fill="#b7ac9e">p</text><text x="312" y="298" fill="#b7ac9e">a</text><text x="320" y="298" fill="#b7ac9e">n</text><text x="336" y="298" fill="#b7ac9e">·</text><text x="352" y="298" fill="#b7ac9e">1</text><text x="360" y="298" fill="#b7ac9e">/</text><text x="368" y="298" fill="#b7ac9e">9</text></g></svg>